<svg width="181" height="245" viewBox="0 0 181 245" fill="none" xmlns="http://www.w3.org/2000/svg">
<path d="M180.542 114.736H0.191833V229.456H180.542V114.736Z" fill="white"/>
<path d="M32.6718 114.736H0.191833V229.456H32.6718V114.736Z" fill="#EBEBEB"/>
<path d="M14.4719 127.116C14.6405 127.015 14.8222 126.937 15.0119 126.886L15.1219 126.346H16.0219L16.1619 126.876C16.3506 126.926 16.5321 127 16.7019 127.096L17.1619 126.796L17.8119 127.416L17.5319 127.886C17.633 128.054 17.7104 128.236 17.7619 128.426L18.3019 128.536V129.446L17.7719 129.576C17.7294 129.769 17.6586 129.954 17.5619 130.126L17.8619 130.576L17.2319 131.226L16.7619 130.946C16.5937 131.05 16.412 131.131 16.2219 131.186L16.1119 131.716H15.2019L15.0719 131.186C14.8832 131.136 14.7017 131.062 14.5319 130.966L14.0719 131.266L13.4219 130.636L13.7019 130.166C13.6008 129.997 13.5234 129.816 13.4719 129.626L12.9319 129.516V128.616L13.4619 128.486C13.5065 128.294 13.5771 128.109 13.6719 127.936L13.3719 127.476L14.0019 126.826L14.4719 127.106V127.116ZM14.9519 128.326C14.7775 128.511 14.6804 128.756 14.6804 129.011C14.6804 129.265 14.7775 129.51 14.9519 129.696C15.1379 129.873 15.3849 129.972 15.6419 129.972C15.8988 129.972 16.1459 129.873 16.3319 129.696C16.4458 129.502 16.4912 129.276 16.4608 129.053C16.4304 128.831 16.3259 128.625 16.1642 128.469C16.0024 128.313 15.7929 128.216 15.5694 128.194C15.3458 128.171 15.1212 128.225 14.9319 128.346L14.9519 128.326Z" fill="#E0E0E0"/>
<path d="M21.9719 152.466H7.83187C7.64061 152.466 7.45124 152.428 7.27466 152.354C7.09809 152.281 6.93779 152.173 6.80301 152.038C6.66824 151.902 6.56163 151.741 6.48935 151.564C6.41707 151.387 6.38055 151.197 6.38187 151.006C6.38187 150.621 6.53464 150.252 6.80657 149.981C7.0785 149.709 7.4473 149.556 7.83187 149.556H21.9919C22.1831 149.555 22.3727 149.591 22.5498 149.663C22.7269 149.736 22.8879 149.842 23.0236 149.977C23.1593 150.112 23.2671 150.272 23.3405 150.449C23.414 150.625 23.4519 150.815 23.4519 151.006C23.4519 151.199 23.4135 151.391 23.3389 151.569C23.2642 151.748 23.1549 151.91 23.0172 152.045C22.8795 152.181 22.7162 152.288 22.5367 152.36C22.3573 152.433 22.1653 152.468 21.9719 152.466Z" fill="#E0E0E0"/>
<path d="M21.9718 145.056H7.83183C7.44635 145.053 7.07755 144.898 6.80591 144.625C6.53426 144.351 6.38183 143.981 6.38184 143.596C6.38184 143.211 6.53461 142.842 6.80653 142.57C7.07846 142.299 7.44727 142.146 7.83183 142.146H21.9918C22.1831 142.144 22.3727 142.181 22.5498 142.253C22.7269 142.326 22.8879 142.432 23.0236 142.567C23.1593 142.702 23.267 142.862 23.3405 143.039C23.414 143.215 23.4518 143.405 23.4518 143.596C23.4518 143.789 23.4134 143.981 23.3388 144.159C23.2642 144.338 23.1549 144.499 23.0172 144.635C22.8795 144.771 22.7161 144.878 22.5367 144.95C22.3572 145.023 22.1652 145.058 21.9718 145.056Z" fill="#E0E0E0"/>
<path d="M21.9718 138.266H7.83183C7.44727 138.266 7.07846 138.113 6.80653 137.841C6.53461 137.569 6.38184 137.2 6.38184 136.816C6.38183 136.43 6.53426 136.06 6.80591 135.787C7.07755 135.513 7.44635 135.358 7.83183 135.356H21.9918C22.3704 135.361 22.7322 135.513 23.0009 135.78C23.2696 136.047 23.4241 136.407 23.4318 136.786C23.4359 136.98 23.401 137.172 23.3293 137.352C23.2576 137.532 23.1505 137.696 23.0144 137.834C22.8783 137.972 22.7159 138.081 22.5368 138.156C22.3578 138.23 22.1656 138.267 21.9718 138.266Z" fill="#E0E0E0"/>
<path d="M60.0219 131.686H46.6019C46.2173 131.686 45.8485 131.533 45.5766 131.261C45.3046 130.989 45.1519 130.62 45.1519 130.236C45.1506 130.045 45.1871 129.855 45.2594 129.678C45.3317 129.501 45.4383 129.34 45.573 129.204C45.7078 129.068 45.8681 128.961 46.0447 128.887C46.2212 128.814 46.4106 128.776 46.6019 128.776H60.0219C60.2131 128.776 60.4025 128.814 60.5791 128.887C60.7557 128.961 60.916 129.068 61.0507 129.204C61.1855 129.34 61.2921 129.501 61.3644 129.678C61.4367 129.855 61.4732 130.045 61.4719 130.236C61.4719 130.62 61.3191 130.989 61.0472 131.261C60.7753 131.533 60.4064 131.686 60.0219 131.686Z" fill="white"/>
<path d="M60.0219 139.306H46.6019C46.4106 139.306 46.2212 139.268 46.0447 139.194C45.8681 139.121 45.7078 139.013 45.573 138.878C45.4383 138.742 45.3317 138.581 45.2594 138.404C45.1871 138.227 45.1506 138.037 45.1519 137.846C45.1519 137.461 45.3046 137.092 45.5766 136.82C45.8485 136.549 46.2173 136.396 46.6019 136.396H60.0219C60.4064 136.396 60.7753 136.549 61.0472 136.82C61.3191 137.092 61.4719 137.461 61.4719 137.846C61.4732 138.037 61.4367 138.227 61.3644 138.404C61.2921 138.581 61.1855 138.742 61.0507 138.878C60.916 139.013 60.7557 139.121 60.5791 139.194C60.4025 139.268 60.2131 139.306 60.0219 139.306Z" fill="#E0E0E0"/>
<path d="M60.0219 147.176H46.6019C46.2173 147.176 45.8485 147.023 45.5766 146.751C45.3046 146.479 45.1519 146.11 45.1519 145.726C45.1506 145.535 45.1871 145.345 45.2594 145.168C45.3317 144.991 45.4383 144.83 45.573 144.694C45.7078 144.558 45.8681 144.451 46.0447 144.377C46.2212 144.304 46.4106 144.266 46.6019 144.266H60.0219C60.2131 144.266 60.4025 144.304 60.5791 144.377C60.7557 144.451 60.916 144.558 61.0507 144.694C61.1855 144.83 61.2921 144.991 61.3644 145.168C61.4367 145.345 61.4732 145.535 61.4719 145.726C61.4719 146.11 61.3191 146.479 61.0472 146.751C60.7753 147.023 60.4064 147.176 60.0219 147.176Z" fill="#70E000" fill-opacity="0.92"/>
<path d="M54.3019 162.396H46.6019C46.4106 162.396 46.2212 162.358 46.0447 162.285C45.8681 162.211 45.7078 162.103 45.573 161.968C45.4383 161.832 45.3317 161.671 45.2594 161.494C45.1871 161.317 45.1506 161.127 45.1519 160.936C45.1519 160.551 45.3046 160.182 45.5766 159.911C45.8485 159.639 46.2173 159.486 46.6019 159.486H54.3019C54.6864 159.486 55.0553 159.639 55.3272 159.911C55.5991 160.182 55.7519 160.551 55.7519 160.936C55.7532 161.127 55.7167 161.317 55.6444 161.494C55.5721 161.671 55.4655 161.832 55.3307 161.968C55.196 162.103 55.0357 162.211 54.8591 162.285C54.6825 162.358 54.4931 162.396 54.3019 162.396Z" fill="white"/>
<path d="M54.3019 170.286H46.6019C46.4106 170.286 46.2212 170.248 46.0447 170.175C45.8681 170.101 45.7078 169.993 45.573 169.858C45.4383 169.722 45.3317 169.561 45.2594 169.384C45.1871 169.207 45.1506 169.017 45.1519 168.826C45.1519 168.441 45.3046 168.072 45.5766 167.801C45.8485 167.529 46.2173 167.376 46.6019 167.376H54.3019C54.6864 167.376 55.0553 167.529 55.3272 167.801C55.5991 168.072 55.7519 168.441 55.7519 168.826C55.7532 169.017 55.7167 169.207 55.6444 169.384C55.5721 169.561 55.4655 169.722 55.3307 169.858C55.196 169.993 55.0357 170.101 54.8591 170.175C54.6825 170.248 54.4931 170.286 54.3019 170.286Z" fill="white"/>
<path d="M77.1519 170.286H63.0519C62.6646 170.286 62.2933 170.132 62.0195 169.858C61.7457 169.584 61.5919 169.213 61.5919 168.826C61.5945 168.44 61.7495 168.071 62.023 167.8C62.2965 167.528 62.6664 167.376 63.0519 167.376H77.1519C77.3431 167.374 77.5327 167.411 77.7098 167.483C77.8869 167.556 78.0479 167.662 78.1836 167.797C78.3193 167.932 78.427 168.092 78.5005 168.269C78.574 168.445 78.6119 168.635 78.6119 168.826C78.6119 169.213 78.458 169.584 78.1842 169.858C77.9104 170.132 77.5391 170.286 77.1519 170.286Z" fill="#E0E0E0"/>
<path d="M69.1818 177.296H55.0718C54.6873 177.296 54.3185 177.143 54.0465 176.871C53.7746 176.599 53.6218 176.23 53.6218 175.846C53.6218 175.46 53.7743 175.091 54.0459 174.817C54.3176 174.543 54.6864 174.389 55.0718 174.386H69.1818C69.5673 174.389 69.9361 174.543 70.2077 174.817C70.4794 175.091 70.6318 175.46 70.6318 175.846C70.6318 176.23 70.4791 176.599 70.2071 176.871C69.9352 177.143 69.5664 177.296 69.1818 177.296Z" fill="#70E000" fill-opacity="0.92"/>
<path d="M72.3018 182.396H62.6118C62.0651 182.396 61.6218 182.839 61.6218 183.386V184.316C61.6218 184.863 62.0651 185.306 62.6118 185.306H72.3018C72.8486 185.306 73.2918 184.863 73.2918 184.316V183.386C73.2918 182.839 72.8486 182.396 72.3018 182.396Z" fill="#70E000" fill-opacity="0.92"/>
<path d="M71.8318 200.986H63.0718C62.8801 200.986 62.6902 200.948 62.5131 200.875C62.336 200.801 62.175 200.694 62.0394 200.558C61.9039 200.423 61.7963 200.262 61.7229 200.085C61.6496 199.907 61.6118 199.718 61.6118 199.526C61.6118 199.335 61.6497 199.145 61.7231 198.969C61.7966 198.792 61.9043 198.632 62.04 198.497C62.1757 198.362 62.3368 198.256 62.5139 198.183C62.6909 198.111 62.8806 198.075 63.0718 198.076H71.8318C72.2164 198.076 72.5852 198.229 72.8571 198.501C73.129 198.772 73.2818 199.141 73.2818 199.526C73.2831 199.717 73.2466 199.907 73.1743 200.084C73.1021 200.261 72.9954 200.422 72.8607 200.558C72.7259 200.693 72.5656 200.801 72.389 200.875C72.2124 200.948 72.0231 200.986 71.8318 200.986Z" fill="#70E000" fill-opacity="0.92"/>
<path d="M71.8318 217.546H63.0718C62.8806 217.547 62.6909 217.511 62.5139 217.438C62.3368 217.366 62.1757 217.26 62.04 217.125C61.9043 216.99 61.7966 216.83 61.7231 216.653C61.6497 216.476 61.6118 216.287 61.6118 216.096C61.6118 215.904 61.6496 215.714 61.7229 215.537C61.7963 215.36 61.9039 215.199 62.0394 215.063C62.175 214.928 62.336 214.82 62.5131 214.747C62.6902 214.674 62.8801 214.636 63.0718 214.636H71.8318C72.0231 214.636 72.2124 214.674 72.389 214.747C72.5656 214.821 72.7259 214.928 72.8607 215.064C72.9954 215.2 73.1021 215.361 73.1743 215.538C73.2466 215.715 73.2831 215.905 73.2818 216.096C73.2818 216.48 73.129 216.849 72.8571 217.121C72.5852 217.393 72.2164 217.546 71.8318 217.546Z" fill="#70E000" fill-opacity="0.92"/>
<path d="M93.3819 217.546H78.0219C77.8306 217.547 77.641 217.511 77.4639 217.438C77.2869 217.366 77.1258 217.26 76.9901 217.125C76.8544 216.99 76.7467 216.83 76.6732 216.653C76.5997 216.476 76.5619 216.287 76.5619 216.096C76.5619 215.709 76.7157 215.337 76.9895 215.063C77.2633 214.79 77.6347 214.636 78.0219 214.636H93.3819C93.5732 214.636 93.7625 214.674 93.9391 214.747C94.1157 214.821 94.276 214.928 94.4108 215.064C94.5455 215.2 94.6521 215.361 94.7244 215.538C94.7967 215.715 94.8332 215.905 94.8319 216.096C94.8319 216.48 94.6791 216.849 94.4072 217.121C94.1353 217.393 93.7665 217.546 93.3819 217.546Z" fill="#455A64"/>
<path d="M104.132 217.546H101.922C101.731 217.547 101.541 217.511 101.364 217.438C101.187 217.366 101.026 217.26 100.89 217.125C100.754 216.99 100.647 216.83 100.573 216.653C100.5 216.476 100.462 216.287 100.462 216.096C100.462 215.904 100.5 215.714 100.573 215.537C100.646 215.36 100.754 215.199 100.89 215.063C101.025 214.928 101.186 214.82 101.363 214.747C101.54 214.674 101.73 214.636 101.922 214.636H104.132C104.519 214.636 104.89 214.79 105.164 215.063C105.438 215.337 105.592 215.709 105.592 216.096C105.589 216.481 105.434 216.85 105.161 217.122C104.887 217.393 104.517 217.546 104.132 217.546Z" fill="#E0E0E0"/>
<path d="M92.4618 200.986H79.4618C79.0746 200.986 78.7033 200.832 78.4295 200.558C78.1557 200.284 78.0018 199.913 78.0018 199.526C78.0018 199.335 78.0397 199.145 78.1132 198.969C78.1867 198.792 78.2943 198.632 78.4301 198.497C78.5658 198.362 78.7268 198.256 78.9039 198.183C79.0809 198.111 79.2706 198.075 79.4618 198.076H92.4618C92.8464 198.076 93.2152 198.229 93.4871 198.501C93.7591 198.772 93.9118 199.141 93.9118 199.526C93.9132 199.717 93.8766 199.907 93.8043 200.084C93.7321 200.261 93.6255 200.422 93.4907 200.558C93.3559 200.693 93.1956 200.801 93.019 200.875C92.8425 200.948 92.6531 200.986 92.4618 200.986Z" fill="#E0E0E0"/>
<path d="M120.932 208.256H79.4818C79.0946 208.256 78.7233 208.102 78.4495 207.828C78.1757 207.554 78.0219 207.183 78.0219 206.796C78.0218 206.605 78.0597 206.415 78.1332 206.239C78.2067 206.062 78.3144 205.902 78.4501 205.767C78.5858 205.632 78.7468 205.526 78.9239 205.453C79.101 205.381 79.2906 205.345 79.4818 205.346H120.932C121.316 205.346 121.685 205.499 121.957 205.771C122.229 206.042 122.382 206.411 122.382 206.796C122.383 206.987 122.347 207.177 122.274 207.354C122.202 207.531 122.095 207.692 121.961 207.828C121.826 207.963 121.666 208.071 121.489 208.145C121.312 208.218 121.123 208.256 120.932 208.256Z" fill="#E0E0E0"/>
<path d="M125.712 200.986H99.2519C98.8646 200.986 98.4933 200.832 98.2195 200.558C97.9457 200.284 97.7919 199.913 97.7919 199.526C97.7945 199.14 97.9495 198.772 98.223 198.5C98.4965 198.228 98.8664 198.076 99.2519 198.076H125.712C125.903 198.075 126.093 198.111 126.27 198.183C126.447 198.256 126.608 198.362 126.744 198.497C126.879 198.632 126.987 198.792 127.061 198.969C127.134 199.145 127.172 199.335 127.172 199.526C127.172 199.913 127.018 200.284 126.744 200.558C126.47 200.832 126.099 200.986 125.712 200.986Z" fill="#455A64"/>
<path d="M89.9819 182.396H78.0919C77.5451 182.396 77.1019 182.839 77.1019 183.386V184.316C77.1019 184.863 77.5451 185.306 78.0919 185.306H89.9819C90.5286 185.306 90.9719 184.863 90.9719 184.316V183.386C90.9719 182.839 90.5286 182.396 89.9819 182.396Z" fill="#455A64"/>
<path d="M99.4718 182.396H95.8219C95.2751 182.396 94.8318 182.839 94.8318 183.386V184.316C94.8318 184.863 95.2751 185.306 95.8219 185.306H99.4718C100.019 185.306 100.462 184.863 100.462 184.316V183.386C100.462 182.839 100.019 182.396 99.4718 182.396Z" fill="#E0E0E0"/>
<path d="M120.382 182.396H105.742C105.195 182.396 104.752 182.839 104.752 183.386V184.316C104.752 184.863 105.195 185.306 105.742 185.306H120.382C120.929 185.306 121.372 184.863 121.372 184.316V183.386C121.372 182.839 120.929 182.396 120.382 182.396Z" fill="#E0E0E0"/>
<path d="M78.7318 177.296H75.5918C75.4006 177.297 75.211 177.261 75.0339 177.188C74.8568 177.116 74.6958 177.01 74.5601 176.875C74.4244 176.74 74.3166 176.58 74.2431 176.403C74.1697 176.226 74.1318 176.037 74.1318 175.846C74.1318 175.459 74.2857 175.087 74.5595 174.813C74.8333 174.54 75.2046 174.386 75.5918 174.386H78.7318C79.1173 174.389 79.4861 174.543 79.7578 174.817C80.0294 175.091 80.1818 175.46 80.1818 175.846C80.1818 176.23 80.0291 176.599 79.7571 176.871C79.4852 177.143 79.1164 177.296 78.7318 177.296Z" fill="white"/>
<path d="M105.352 177.296H85.3519C84.9673 177.296 84.5985 177.143 84.3265 176.871C84.0546 176.599 83.9019 176.23 83.9019 175.846C83.9018 175.46 84.0543 175.091 84.3259 174.817C84.5976 174.543 84.9664 174.389 85.3519 174.386H105.352C105.738 174.388 106.108 174.543 106.381 174.816C106.655 175.09 106.809 175.459 106.812 175.846C106.809 176.231 106.654 176.6 106.381 176.872C106.107 177.143 105.737 177.296 105.352 177.296Z" fill="#E0E0E0"/>
<path d="M81.5019 131.686H68.0919C67.7073 131.686 67.3385 131.533 67.0666 131.261C66.7947 130.989 66.6419 130.62 66.6419 130.236C66.6406 130.045 66.6771 129.855 66.7494 129.678C66.8217 129.501 66.9282 129.34 67.063 129.204C67.1978 129.068 67.3581 128.961 67.5347 128.887C67.7112 128.814 67.9006 128.776 68.0919 128.776H81.5019C81.8891 128.776 82.2605 128.93 82.5343 129.204C82.8081 129.477 82.9619 129.849 82.9619 130.236C82.9619 130.427 82.9241 130.617 82.8506 130.793C82.7771 130.97 82.6694 131.13 82.5337 131.265C82.398 131.4 82.2369 131.506 82.0598 131.578C81.8828 131.651 81.6931 131.687 81.5019 131.686Z" fill="#455A64"/>
<path d="M98.8319 139.306H68.0919C67.9006 139.306 67.7112 139.268 67.5347 139.194C67.3581 139.121 67.1978 139.013 67.063 138.878C66.9282 138.742 66.8217 138.581 66.7494 138.404C66.6771 138.227 66.6406 138.037 66.6419 137.846C66.6419 137.461 66.7947 137.092 67.0666 136.82C67.3385 136.549 67.7073 136.396 68.0919 136.396H98.8319C99.0231 136.394 99.2128 136.431 99.3899 136.503C99.5669 136.576 99.7279 136.682 99.8637 136.817C99.9994 136.952 100.107 137.112 100.181 137.289C100.254 137.465 100.292 137.655 100.292 137.846C100.292 138.233 100.138 138.604 99.8643 138.878C99.5905 139.152 99.2191 139.306 98.8319 139.306Z" fill="white"/>
<path d="M131.832 147.176H68.0919C67.7073 147.176 67.3385 147.023 67.0666 146.751C66.7947 146.479 66.6419 146.11 66.6419 145.726C66.6406 145.535 66.6771 145.345 66.7494 145.168C66.8217 144.991 66.9282 144.83 67.063 144.694C67.1978 144.558 67.3581 144.451 67.5347 144.377C67.7112 144.304 67.9006 144.266 68.0919 144.266H131.832C132.023 144.266 132.213 144.304 132.389 144.377C132.566 144.451 132.726 144.558 132.861 144.694C132.996 144.83 133.102 144.991 133.174 145.168C133.247 145.345 133.283 145.535 133.282 145.726C133.282 146.11 133.129 146.479 132.857 146.751C132.585 147.023 132.216 147.176 131.832 147.176Z" fill="#E0E0E0"/>
<path d="M98.1418 152.726H68.0918C67.7064 152.723 67.3376 152.568 67.0659 152.295C66.7943 152.021 66.6418 151.651 66.6418 151.266C66.6418 150.881 66.7946 150.512 67.0665 150.241C67.3385 149.969 67.7073 149.816 68.0918 149.816H98.1418C98.3331 149.815 98.5227 149.851 98.6998 149.923C98.8769 149.996 99.0379 150.102 99.1736 150.237C99.3093 150.372 99.417 150.532 99.4905 150.709C99.564 150.885 99.6019 151.075 99.6019 151.266C99.6019 151.653 99.448 152.024 99.1742 152.298C98.9004 152.572 98.5291 152.726 98.1418 152.726Z" fill="#E0E0E0"/>
<path d="M92.0019 162.396H61.9419C61.7506 162.396 61.5612 162.358 61.3846 162.285C61.2081 162.211 61.0478 162.103 60.913 161.968C60.7782 161.832 60.6716 161.671 60.5993 161.494C60.5271 161.317 60.4905 161.127 60.4919 160.936C60.4919 160.551 60.6446 160.182 60.9166 159.911C61.1885 159.639 61.5573 159.486 61.9419 159.486H92.0019C92.3864 159.486 92.7552 159.639 93.0271 159.911C93.2991 160.182 93.4518 160.551 93.4518 160.936C93.4532 161.127 93.4166 161.317 93.3444 161.494C93.2721 161.671 93.1655 161.832 93.0307 161.968C92.8959 162.103 92.7356 162.211 92.5591 162.285C92.3825 162.358 92.1931 162.396 92.0019 162.396Z" fill="#455A64"/>
<path d="M108.832 162.396H98.7519C98.3646 162.396 97.9933 162.242 97.7195 161.968C97.4457 161.694 97.2919 161.323 97.2919 160.936C97.2919 160.745 97.3297 160.555 97.4032 160.379C97.4767 160.202 97.5844 160.042 97.7201 159.907C97.8558 159.772 98.0168 159.666 98.1939 159.593C98.371 159.521 98.5606 159.485 98.7519 159.486H108.832C109.217 159.486 109.587 159.638 109.861 159.91C110.134 160.182 110.289 160.55 110.292 160.936C110.292 161.323 110.138 161.694 109.864 161.968C109.59 162.242 109.219 162.396 108.832 162.396Z" fill="#70E000" fill-opacity="0.92"/>
<path d="M134.582 162.346H115.582C115.391 162.347 115.201 162.311 115.024 162.238C114.847 162.166 114.686 162.059 114.55 161.925C114.414 161.79 114.307 161.63 114.233 161.453C114.16 161.276 114.122 161.087 114.122 160.896C114.122 160.509 114.276 160.137 114.549 159.863C114.823 159.59 115.195 159.436 115.582 159.436H134.582C134.773 159.436 134.962 159.474 135.139 159.547C135.316 159.621 135.476 159.728 135.611 159.864C135.745 160 135.852 160.161 135.924 160.338C135.997 160.515 136.033 160.705 136.032 160.896C136.032 161.28 135.879 161.649 135.607 161.921C135.335 162.193 134.966 162.346 134.582 162.346Z" fill="white"/>
<path d="M160.472 162.346H141.472C141.087 162.346 140.718 162.193 140.447 161.921C140.175 161.649 140.022 161.28 140.022 160.896C140.021 160.705 140.057 160.515 140.129 160.338C140.202 160.161 140.308 160 140.443 159.864C140.578 159.728 140.738 159.621 140.915 159.547C141.091 159.474 141.281 159.436 141.472 159.436H160.472C160.859 159.436 161.23 159.59 161.504 159.863C161.778 160.137 161.932 160.509 161.932 160.896C161.932 161.087 161.894 161.276 161.821 161.453C161.747 161.63 161.639 161.79 161.504 161.925C161.368 162.059 161.207 162.166 161.03 162.238C160.853 162.311 160.663 162.347 160.472 162.346Z" fill="#E0E0E0"/>
<path d="M15.8318 160.316H7.83183C7.44635 160.313 7.07755 160.158 6.80591 159.885C6.53426 159.611 6.38183 159.241 6.38184 158.856C6.38184 158.471 6.53461 158.102 6.80653 157.83C7.07846 157.559 7.44727 157.406 7.83183 157.406H15.8318C16.2164 157.406 16.5852 157.559 16.8571 157.83C17.1291 158.102 17.2818 158.471 17.2818 158.856C17.2818 159.241 17.1294 159.611 16.8578 159.885C16.5861 160.158 16.2173 160.313 15.8318 160.316Z" fill="#E0E0E0"/>
<path d="M13.4419 183.856H7.83187C7.64061 183.856 7.45124 183.818 7.27466 183.744C7.09809 183.671 6.93779 183.563 6.80301 183.428C6.66824 183.292 6.56163 183.131 6.48935 182.954C6.41707 182.777 6.38055 182.587 6.38187 182.396C6.38187 182.011 6.53464 181.642 6.80657 181.37C7.0785 181.099 7.4473 180.946 7.83187 180.946H13.4619C13.8464 180.946 14.2152 181.099 14.4872 181.37C14.7591 181.642 14.9119 182.011 14.9119 182.396C14.9132 182.589 14.876 182.78 14.8025 182.958C14.729 183.137 14.6206 183.299 14.4837 183.435C14.3468 183.571 14.1841 183.678 14.0052 183.75C13.8263 183.823 13.6348 183.858 13.4419 183.856Z" fill="#E0E0E0"/>
<path d="M23.4319 168.156H7.83187C7.4473 168.156 7.0785 168.003 6.80657 167.731C6.53464 167.459 6.38187 167.09 6.38187 166.706C6.38055 166.515 6.41707 166.325 6.48935 166.148C6.56163 165.971 6.66824 165.81 6.80301 165.674C6.93779 165.538 7.09809 165.431 7.27466 165.357C7.45124 165.284 7.64061 165.246 7.83187 165.246H23.4319C23.6231 165.246 23.8125 165.284 23.9891 165.357C24.1657 165.431 24.326 165.538 24.4607 165.674C24.5955 165.81 24.7021 165.971 24.7744 166.148C24.8467 166.325 24.8832 166.515 24.8819 166.706C24.8819 167.09 24.7291 167.459 24.4572 167.731C24.1852 168.003 23.8164 168.156 23.4319 168.156Z" fill="#E0E0E0"/>
<path d="M20.6919 176.006H7.83187C7.4473 176.006 7.0785 175.853 6.80657 175.581C6.53464 175.309 6.38187 174.94 6.38187 174.556C6.38055 174.365 6.41707 174.175 6.48935 173.998C6.56163 173.821 6.66824 173.66 6.80301 173.524C6.93779 173.388 7.09809 173.281 7.27466 173.207C7.45124 173.134 7.64061 173.096 7.83187 173.096H20.7119C20.9031 173.096 21.0925 173.134 21.2691 173.207C21.4457 173.281 21.606 173.388 21.7407 173.524C21.8755 173.66 21.9821 173.821 22.0544 173.998C22.1266 174.175 22.1632 174.365 22.1619 174.556C22.1619 174.748 22.1237 174.938 22.0496 175.115C21.9755 175.293 21.8669 175.453 21.7301 175.588C21.5934 175.723 21.4311 175.83 21.2529 175.901C21.0747 175.973 20.884 176.008 20.6919 176.006Z" fill="#E0E0E0"/>
<path d="M40.0318 130.236C40.0318 130.529 39.945 130.815 39.7824 131.058C39.6198 131.301 39.3887 131.491 39.1182 131.603C38.8478 131.715 38.5502 131.745 38.2631 131.687C37.976 131.63 37.7123 131.489 37.5053 131.282C37.2983 131.075 37.1574 130.812 37.1003 130.525C37.0432 130.238 37.0725 129.94 37.1845 129.669C37.2965 129.399 37.4862 129.168 37.7296 129.005C37.973 128.843 38.2591 128.756 38.5518 128.756C38.9444 128.756 39.3208 128.912 39.5984 129.189C39.8759 129.467 40.0318 129.843 40.0318 130.236Z" fill="#455A64"/>
<path d="M38.5519 123.946C39.3693 123.946 40.0319 123.283 40.0319 122.466C40.0319 121.648 39.3693 120.986 38.5519 120.986C37.7345 120.986 37.0719 121.648 37.0719 122.466C37.0719 123.283 37.7345 123.946 38.5519 123.946Z" fill="#455A64"/>
<path d="M38.5519 139.306C39.3693 139.306 40.0319 138.643 40.0319 137.826C40.0319 137.008 39.3693 136.346 38.5519 136.346C37.7345 136.346 37.0719 137.008 37.0719 137.826C37.0719 138.643 37.7345 139.306 38.5519 139.306Z" fill="#455A64"/>
<path d="M38.5519 147.206C39.3693 147.206 40.0319 146.543 40.0319 145.726C40.0319 144.908 39.3693 144.246 38.5519 144.246C37.7345 144.246 37.0719 144.908 37.0719 145.726C37.0719 146.543 37.7345 147.206 38.5519 147.206Z" fill="#455A64"/>
<path d="M38.5519 155.096C39.3693 155.096 40.0319 154.433 40.0319 153.616C40.0319 152.798 39.3693 152.136 38.5519 152.136C37.7345 152.136 37.0719 152.798 37.0719 153.616C37.0719 154.433 37.7345 155.096 38.5519 155.096Z" fill="#455A64"/>
<path d="M40.0319 161.506C40.0338 161.799 39.9487 162.086 39.7873 162.331C39.6259 162.576 39.3955 162.767 39.1252 162.88C38.8549 162.994 38.5571 163.025 38.2693 162.969C37.9816 162.913 37.7169 162.773 37.5089 162.566C37.3009 162.359 37.159 162.096 37.1011 161.808C37.0432 161.521 37.0719 161.223 37.1836 160.952C37.2953 160.681 37.485 160.449 37.7286 160.286C37.9722 160.123 38.2587 160.036 38.5519 160.036C38.9427 160.036 39.3176 160.19 39.5949 160.466C39.8721 160.741 40.0292 161.115 40.0319 161.506Z" fill="#455A64"/>
<path d="M38.5519 170.886C39.3693 170.886 40.0319 170.223 40.0319 169.406C40.0319 168.588 39.3693 167.926 38.5519 167.926C37.7345 167.926 37.0719 168.588 37.0719 169.406C37.0719 170.223 37.7345 170.886 38.5519 170.886Z" fill="#455A64"/>
<path d="M38.5519 178.776C39.3693 178.776 40.0319 178.113 40.0319 177.296C40.0319 176.478 39.3693 175.816 38.5519 175.816C37.7345 175.816 37.0719 176.478 37.0719 177.296C37.0719 178.113 37.7345 178.776 38.5519 178.776Z" fill="#455A64"/>
<path d="M40.0318 185.196C40.0318 185.489 39.945 185.775 39.7824 186.018C39.6198 186.261 39.3887 186.451 39.1182 186.563C38.8478 186.675 38.5502 186.705 38.2631 186.647C37.976 186.59 37.7123 186.449 37.5053 186.242C37.2983 186.035 37.1574 185.772 37.1003 185.485C37.0432 185.197 37.0725 184.9 37.1845 184.629C37.2965 184.359 37.4862 184.128 37.7296 183.965C37.973 183.803 38.2591 183.716 38.5518 183.716C38.9444 183.716 39.3208 183.872 39.5984 184.149C39.8759 184.427 40.0318 184.803 40.0318 185.196Z" fill="#455A64"/>
<path d="M40.0318 193.086C40.0318 193.379 39.945 193.665 39.7824 193.908C39.6198 194.151 39.3887 194.341 39.1182 194.453C38.8478 194.565 38.5502 194.594 38.2631 194.537C37.976 194.48 37.7123 194.339 37.5053 194.132C37.2983 193.925 37.1574 193.662 37.1003 193.375C37.0432 193.087 37.0725 192.79 37.1845 192.519C37.2965 192.249 37.4862 192.018 37.7296 191.855C37.973 191.693 38.2591 191.606 38.5518 191.606C38.9444 191.606 39.3208 191.762 39.5984 192.039C39.8759 192.317 40.0318 192.693 40.0318 193.086Z" fill="#455A64"/>
<path d="M38.5519 202.466C39.3693 202.466 40.0319 201.803 40.0319 200.986C40.0319 200.168 39.3693 199.506 38.5519 199.506C37.7345 199.506 37.0719 200.168 37.0719 200.986C37.0719 201.803 37.7345 202.466 38.5519 202.466Z" fill="#455A64"/>
<path d="M40.0318 208.876C40.0318 209.168 39.945 209.455 39.7824 209.698C39.6198 209.941 39.3887 210.131 39.1182 210.243C38.8478 210.355 38.5502 210.384 38.2631 210.327C37.976 210.27 37.7123 210.129 37.5053 209.922C37.2983 209.715 37.1574 209.452 37.1003 209.164C37.0432 208.877 37.0725 208.58 37.1845 208.309C37.2965 208.039 37.4862 207.808 37.7296 207.645C37.973 207.483 38.2591 207.396 38.5518 207.396C38.9444 207.396 39.3208 207.552 39.5984 207.829C39.8759 208.107 40.0318 208.483 40.0318 208.876Z" fill="#455A64"/>
<path d="M38.5519 218.256C39.3693 218.256 40.0319 217.593 40.0319 216.776C40.0319 215.958 39.3693 215.296 38.5519 215.296C37.7345 215.296 37.0719 215.958 37.0719 216.776C37.0719 217.593 37.7345 218.256 38.5519 218.256Z" fill="#455A64"/>
<path d="M5.60184 99.0958H176.712C177.728 99.0958 178.702 99.4994 179.42 100.218C180.138 100.936 180.542 101.91 180.542 102.926V114.786H0.191833V104.496C0.191832 103.786 0.331836 103.083 0.603836 102.427C0.875837 101.771 1.2745 101.175 1.77699 100.674C2.27949 100.172 2.87596 99.7748 3.53227 99.504C4.18859 99.2332 4.89186 99.0945 5.60184 99.0958Z" fill="#70E000" fill-opacity="0.92"/>
<path d="M9.51181 109.546C10.6992 109.546 11.6618 108.583 11.6618 107.396C11.6618 106.208 10.6992 105.246 9.51181 105.246C8.3244 105.246 7.36182 106.208 7.36182 107.396C7.36182 108.583 8.3244 109.546 9.51181 109.546Z" fill="white"/>
<path d="M18.2719 107.396C18.2719 107.821 18.1458 108.237 17.9095 108.59C17.6733 108.944 17.3375 109.219 16.9446 109.382C16.5518 109.545 16.1195 109.587 15.7024 109.504C15.2854 109.422 14.9023 109.217 14.6016 108.916C14.3009 108.615 14.0961 108.232 14.0132 107.815C13.9302 107.398 13.9728 106.966 14.1355 106.573C14.2983 106.18 14.5738 105.844 14.9274 105.608C15.281 105.372 15.6966 105.246 16.1219 105.246C16.4046 105.244 16.6848 105.299 16.9462 105.407C17.2076 105.514 17.4452 105.673 17.6451 105.873C17.845 106.072 18.0033 106.31 18.1109 106.571C18.2185 106.833 18.2732 107.113 18.2719 107.396Z" fill="white"/>
<path d="M24.8819 107.396C24.8819 107.821 24.7557 108.237 24.5195 108.59C24.2833 108.944 23.9475 109.219 23.5546 109.382C23.1618 109.545 22.7295 109.587 22.3124 109.504C21.8954 109.422 21.5122 109.217 21.2116 108.916C20.9109 108.615 20.7061 108.232 20.6232 107.815C20.5402 107.398 20.5828 106.966 20.7455 106.573C20.9082 106.18 21.1838 105.844 21.5374 105.608C21.8909 105.372 22.3066 105.246 22.7318 105.246C23.0146 105.244 23.2947 105.299 23.5562 105.407C23.8176 105.514 24.0552 105.673 24.2551 105.873C24.455 106.072 24.6133 106.31 24.7209 106.571C24.8285 106.833 24.8832 107.113 24.8819 107.396Z" fill="white"/>
<path d="M38.5519 227.666L53.8019 244.156L67.6319 227.666H38.5519Z" fill="white"/>
<path d="M175.652 229.466C176.189 229.434 176.72 229.333 177.232 229.166C177.975 228.904 178.643 228.466 179.179 227.89C179.716 227.313 180.104 226.615 180.312 225.856C180.457 225.329 180.514 224.782 180.482 224.236V222.396C180.482 221.106 180.482 219.696 180.482 218.176C180.482 215.126 180.482 211.606 180.482 207.646C180.482 191.796 180.432 168.876 180.402 140.546C180.402 133.466 180.402 126.056 180.402 118.316C180.402 114.443 180.402 110.499 180.402 106.486C180.402 105.486 180.402 104.486 180.402 103.486C180.295 102.506 179.882 101.586 179.221 100.855C178.56 100.124 177.686 99.6206 176.722 99.4159C175.706 99.3065 174.683 99.273 173.662 99.3158H120.482H61.7118H6.71185C6.05185 99.3158 5.34185 99.3158 4.71185 99.3158C4.07528 99.3771 3.45865 99.5713 2.90185 99.8859C2.34281 100.204 1.85596 100.636 1.47212 101.152C1.08827 101.668 0.815759 102.259 0.671838 102.886C0.53668 103.799 0.493141 104.724 0.541848 105.646V147.226C0.541848 161.726 0.541848 175.873 0.541848 189.666V209.996C0.541848 213.329 0.541848 216.639 0.541848 219.926C0.541848 221.556 0.541848 223.206 0.541848 224.806C0.587294 225.575 0.8242 226.322 1.23109 226.976C1.63798 227.631 2.20195 228.174 2.87183 228.556C3.5388 228.94 4.29211 229.15 5.06184 229.166H39.8318L39.9018 229.236L53.9018 243.936H53.5918L65.8318 229.336L65.8918 229.266H65.9818L146.152 229.346L168.042 229.406H173.742H175.682H173.742H168.042L146.152 229.466L65.9818 229.546L66.1318 229.476L53.8318 244.286L53.6818 244.466L53.5218 244.296L39.5218 229.616L39.6818 229.686H4.98184C4.13948 229.66 3.31603 229.43 2.58184 229.016C1.84195 228.594 1.21869 227.995 0.768273 227.272C0.317856 226.549 0.0544536 225.726 0.00183951 224.876C0.00183951 223.216 0.00183951 221.606 0.00183951 219.966V210.036C0.00183951 203.369 0.00183951 196.593 0.00183951 189.706V147.276C0.00183951 140.029 0.00183951 132.696 0.00183951 125.276V104.276C-0.0101898 103.785 0.0368137 103.295 0.141839 102.816C0.307361 102.124 0.612796 101.473 1.03932 100.904C1.46583 100.335 2.0044 99.8591 2.62183 99.5058C3.23747 99.1574 3.91829 98.9396 4.62183 98.8659C5.35183 98.8159 5.98183 98.8659 6.62183 98.8659H120.382H173.562C174.61 98.8183 175.66 98.855 176.702 98.9759C177.751 99.2011 178.702 99.7514 179.42 100.549C180.138 101.346 180.587 102.349 180.702 103.416C180.762 104.476 180.702 105.416 180.702 106.416C180.702 110.416 180.702 114.359 180.702 118.246C180.702 125.979 180.702 133.389 180.702 140.476C180.702 168.806 180.632 191.726 180.612 207.576C180.612 211.576 180.612 215.056 180.612 218.106C180.612 219.626 180.612 221.036 180.612 222.326V224.166C180.637 224.722 180.573 225.28 180.422 225.816C180.175 226.717 179.671 227.526 178.972 228.146C178.479 228.597 177.896 228.938 177.262 229.146C176.877 229.276 176.477 229.356 176.072 229.386L175.652 229.466Z" fill="white"/>
<path d="M14.3618 0.275818H150.602C151.443 0.275818 152.249 0.609794 152.843 1.20428C153.438 1.79877 153.772 2.60508 153.772 3.44582V71.9758C153.772 72.981 153.373 73.945 152.662 74.6557C151.951 75.3665 150.987 75.7658 149.982 75.7658H14.3618C13.5211 75.7658 12.7148 75.4318 12.1203 74.8373C11.5258 74.2429 11.1918 73.4365 11.1918 72.5958V3.44582C11.1918 2.60508 11.5258 1.79877 12.1203 1.20428C12.7148 0.609794 13.5211 0.275818 14.3618 0.275818Z" fill="white"/>
<path d="M14.6619 0.275818H150.302C151.222 0.275818 152.105 0.641394 152.756 1.29214C153.406 1.9429 153.772 2.82552 153.772 3.74582V16.4858H11.1919V3.78581C11.1866 3.32677 11.2724 2.87125 11.4444 2.44562C11.6165 2.01999 11.8712 1.63273 12.194 1.30626C12.5167 0.979791 12.901 0.720596 13.3247 0.543716C13.7483 0.366837 14.2028 0.275787 14.6619 0.275818Z" fill="#70E000" fill-opacity="0.92"/>
<path d="M149.762 75.7858C150.13 75.7523 150.494 75.6887 150.852 75.5958C151.369 75.4449 151.85 75.1896 152.264 74.8456C152.679 74.5016 153.018 74.0762 153.262 73.5958C153.617 72.8843 153.77 72.0884 153.702 71.2958C153.702 70.4058 153.702 69.4458 153.702 68.3958C153.702 66.3058 153.702 63.8858 153.702 61.1658C153.702 50.2858 153.702 34.5558 153.622 15.1158C153.622 12.6825 153.622 10.1925 153.622 7.64583C153.622 6.37583 153.622 5.09583 153.622 3.79583C153.679 3.17829 153.543 2.55824 153.233 2.021C152.924 1.48376 152.455 1.05573 151.892 0.795826C151.3 0.554388 150.659 0.458374 150.022 0.515827H135.422H98.9218H15.2818C14.8398 0.493843 14.3968 0.524063 13.9618 0.605839C13.3328 0.754422 12.7621 1.08662 12.3224 1.56025C11.8826 2.03387 11.5935 2.62754 11.4918 3.26583C11.4561 3.71178 11.4561 4.15989 11.4918 4.60584V19.6058C11.4918 26.8258 11.4918 33.9392 11.4918 40.9458V61.5458C11.4918 64.8792 11.4918 68.2125 11.4918 71.5458C11.464 72.3214 11.6742 73.0869 12.0943 73.7394C12.5144 74.392 13.1243 74.9002 13.8418 75.1958C14.5838 75.4492 15.3714 75.5412 16.1518 75.4658H18.5718H86.8818L132.932 75.5458H145.452H148.712H149.822H148.712H145.452L132.932 75.5958L86.8818 75.6758L18.5718 75.7358H16.1518C15.3094 75.8041 14.4618 75.6986 13.6618 75.4258C12.8555 75.0921 12.1695 74.5214 11.6945 73.7893C11.2195 73.0572 10.978 72.1982 11.0018 71.3258V61.3258C11.0018 54.5958 11.0018 47.7158 11.0018 40.7258V4.62583C10.9792 4.15193 10.9959 3.67697 11.0518 3.20583C11.1638 2.46447 11.4965 1.77406 12.0067 1.22464C12.5169 0.675225 13.1808 0.292301 13.9118 0.125828C14.3849 0.0261426 14.8691 -0.0108423 15.3518 0.0158274H98.9918H135.492H150.042C150.725 -0.0439083 151.412 0.0660237 152.042 0.335835C152.682 0.628428 153.217 1.11033 153.575 1.71653C153.932 2.32272 154.095 3.02404 154.042 3.72583C154.042 5.02583 154.042 6.30582 154.042 7.57582C154.042 10.1292 154.042 12.6192 154.042 15.0458C154.042 34.4858 153.982 50.2158 153.962 61.0958C153.962 63.8158 153.962 66.2358 153.962 68.3258C153.962 69.3758 153.962 70.3258 153.962 71.2258C153.981 71.6508 153.955 72.0767 153.882 72.4958C153.799 72.8712 153.668 73.2342 153.492 73.5758C153.231 74.0602 152.875 74.487 152.446 74.8306C152.016 75.1743 151.522 75.4277 150.992 75.5758C150.599 75.7236 150.181 75.7949 149.762 75.7858Z" fill="white"/>
<path d="M21.8018 12.3058C23.2709 12.3058 24.4619 11.1149 24.4619 9.64584C24.4619 8.17677 23.2709 6.98584 21.8018 6.98584C20.3328 6.98584 19.1418 8.17677 19.1418 9.64584C19.1418 11.1149 20.3328 12.3058 21.8018 12.3058Z" fill="white"/>
<path d="M32.6219 9.64586C32.6219 10.1724 32.4656 10.6871 32.1729 11.1247C31.8802 11.5624 31.4641 11.9033 30.9775 12.1043C30.4909 12.3054 29.9555 12.3575 29.4393 12.254C28.923 12.1506 28.449 11.8962 28.0774 11.5232C27.7058 11.1502 27.4533 10.6753 27.3518 10.1586C27.2503 9.642 27.3044 9.10685 27.5072 8.62098C27.7101 8.1351 28.0526 7.72036 28.4913 7.42928C28.9301 7.1382 29.4454 6.98388 29.9719 6.98586C30.3207 6.98586 30.6661 7.05473 30.9883 7.18853C31.3105 7.32233 31.6031 7.51843 31.8493 7.76557C32.0955 8.0127 32.2905 8.30601 32.423 8.62868C32.5556 8.95135 32.6232 9.29702 32.6219 9.64586Z" fill="white"/>
<path d="M38.1418 12.3058C39.6109 12.3058 40.8018 11.1149 40.8018 9.64584C40.8018 8.17677 39.6109 6.98584 38.1418 6.98584C36.6727 6.98584 35.4818 8.17677 35.4818 9.64584C35.4818 11.1149 36.6727 12.3058 38.1418 12.3058Z" fill="white"/>
<path d="M52.2719 39.3258H35.7019C35.466 39.3271 35.2321 39.2818 35.0138 39.1924C34.7955 39.1031 34.597 38.9714 34.4297 38.8051C34.2624 38.6387 34.1297 38.441 34.0391 38.2231C33.9485 38.0053 33.9019 37.7717 33.9019 37.5358C33.9006 37.2991 33.9462 37.0644 34.0362 36.8454C34.1262 36.6264 34.2587 36.4275 34.4261 36.2601C34.5935 36.0926 34.7925 35.9601 35.0115 35.8701C35.2305 35.7801 35.4651 35.7345 35.7019 35.7358H52.2719C52.7493 35.7358 53.2071 35.9254 53.5447 36.263C53.8822 36.6006 54.0719 37.0584 54.0719 37.5358C54.0692 38.0115 53.8784 38.4667 53.5412 38.8021C53.2039 39.1375 52.7475 39.3258 52.2719 39.3258Z" fill="white"/>
<path d="M52.2719 48.7858H35.7018C35.4655 48.7858 35.2314 48.7392 35.013 48.6488C34.7946 48.5583 34.5962 48.4257 34.4291 48.2586C34.2619 48.0914 34.1293 47.893 34.0389 47.6746C33.9484 47.4562 33.9019 47.2222 33.9019 46.9858C33.9019 46.5084 34.0915 46.0506 34.4291 45.713C34.7666 45.3754 35.2245 45.1858 35.7018 45.1858H52.2719C52.7484 45.1884 53.2047 45.3789 53.5417 45.7159C53.8787 46.0529 54.0692 46.5092 54.0719 46.9858C54.0692 47.4624 53.8787 47.9187 53.5417 48.2557C53.2047 48.5927 52.7484 48.7832 52.2719 48.7858Z" fill="#E0E0E0"/>
<path d="M139.772 39.3258H91.6918C91.2162 39.3258 90.7599 39.1376 90.4226 38.8022C90.0853 38.4668 89.8945 38.0115 89.8918 37.5358C89.8918 37.0585 90.0815 36.6006 90.4191 36.263C90.7566 35.9255 91.2145 35.7358 91.6918 35.7358H139.772C140.249 35.7358 140.707 35.9255 141.045 36.263C141.382 36.6006 141.572 37.0585 141.572 37.5358C141.569 38.0115 141.378 38.4668 141.041 38.8022C140.704 39.1376 140.248 39.3258 139.772 39.3258Z" fill="#E0E0E0"/>
<path d="M52.2719 58.4758H35.7019C35.2245 58.4758 34.7667 58.2862 34.4291 57.9486C34.0915 57.6111 33.9019 57.1532 33.9019 56.6758C33.9006 56.4391 33.9462 56.2044 34.0362 55.9854C34.1262 55.7664 34.2587 55.5675 34.4261 55.4001C34.5935 55.2327 34.7925 55.1001 35.0115 55.0101C35.2305 54.9202 35.4651 54.8745 35.7019 54.8758H52.2719C52.7493 54.8758 53.2071 55.0655 53.5447 55.403C53.8822 55.7406 54.0719 56.1984 54.0719 56.6758C54.0693 57.1524 53.8788 57.6087 53.5418 57.9457C53.2048 58.2827 52.7485 58.4732 52.2719 58.4758Z" fill="#70E000" fill-opacity="0.92"/>
<path d="M128.302 48.7858H111.722C111.246 48.7832 110.791 48.5923 110.456 48.2551C110.12 47.9178 109.932 47.4615 109.932 46.9858C109.932 46.5101 110.12 46.0538 110.456 45.7165C110.791 45.3792 111.246 45.1884 111.722 45.1858H128.302C128.778 45.1884 129.235 45.3789 129.572 45.7159C129.909 46.0529 130.099 46.5092 130.102 46.9858C130.099 47.4624 129.909 47.9187 129.572 48.2557C129.235 48.5927 128.778 48.7832 128.302 48.7858Z" fill="#70E000" fill-opacity="0.92"/>
<path d="M78.8318 39.3258H62.2518C61.7762 39.3258 61.3199 39.1376 60.9826 38.8022C60.6453 38.4668 60.4545 38.0115 60.4518 37.5358C60.4518 37.0585 60.6415 36.6006 60.979 36.263C61.3166 35.9255 61.7745 35.7358 62.2518 35.7358H78.8318C79.0678 35.7358 79.3013 35.7825 79.5192 35.873C79.737 35.9636 79.9348 36.0964 80.1011 36.2637C80.2675 36.4309 80.3991 36.6294 80.4885 36.8478C80.5778 37.0661 80.6232 37.2999 80.6218 37.5358C80.6218 38.0106 80.4333 38.4659 80.0976 38.8016C79.7619 39.1372 79.3066 39.3258 78.8318 39.3258Z" fill="#455A64"/>
<path d="M100.182 48.7858H62.2518C61.7753 48.7832 61.319 48.5927 60.982 48.2557C60.645 47.9187 60.4545 47.4624 60.4518 46.9858C60.4545 46.5092 60.645 46.0529 60.982 45.7159C61.319 45.3789 61.7753 45.1884 62.2518 45.1858H100.182C100.659 45.1858 101.117 45.3754 101.455 45.713C101.792 46.0506 101.982 46.5084 101.982 46.9858C101.982 47.2222 101.935 47.4562 101.845 47.6746C101.754 47.893 101.622 48.0914 101.455 48.2586C101.287 48.4257 101.089 48.5583 100.871 48.6488C100.652 48.7392 100.418 48.7858 100.182 48.7858Z" fill="white"/>
<path d="M137.392 58.4759H62.1719C61.9407 58.4707 61.7129 58.42 61.5013 58.3267C61.2898 58.2334 61.0987 58.0994 60.939 57.9322C60.7792 57.765 60.654 57.5681 60.5704 57.3525C60.4869 57.1369 60.4466 56.907 60.4519 56.6759C60.4466 56.4447 60.4869 56.2148 60.5704 55.9992C60.654 55.7837 60.7792 55.5867 60.939 55.4195C61.0987 55.2524 61.2898 55.1183 61.5013 55.025C61.7129 54.9317 61.9407 54.881 62.1719 54.8759H137.392C137.623 54.881 137.85 54.9318 138.061 55.0252C138.272 55.1186 138.462 55.2528 138.621 55.4201C138.78 55.5874 138.905 55.7845 138.987 56C139.07 56.2155 139.109 56.4452 139.102 56.6759C139.113 57.141 138.939 57.5915 138.618 57.9288C138.298 58.2661 137.857 58.4628 137.392 58.4759Z" fill="#E0E0E0"/>
<path d="M99.3918 65.3258H62.2518C61.7753 65.3232 61.319 65.1327 60.982 64.7957C60.645 64.4587 60.4545 64.0024 60.4518 63.5258C60.4545 63.0493 60.645 62.5929 60.982 62.2559C61.319 61.9189 61.7753 61.7285 62.2518 61.7258H99.3918C99.6282 61.7258 99.8623 61.7724 100.081 61.8628C100.299 61.9533 100.497 62.0859 100.665 62.253C100.832 62.4202 100.964 62.6186 101.055 62.837C101.145 63.0554 101.192 63.2895 101.192 63.5258C101.192 63.7622 101.145 63.9963 101.055 64.2147C100.964 64.433 100.832 64.6315 100.665 64.7986C100.497 64.9658 100.299 65.0984 100.081 65.1888C99.8623 65.2793 99.6282 65.3258 99.3918 65.3258Z" fill="#E0E0E0"/>
<path d="M27.5719 37.5358C27.5719 37.8978 27.4645 38.2516 27.2635 38.5525C27.0624 38.8534 26.7766 39.088 26.4422 39.2265C26.1078 39.365 25.7398 39.4013 25.3848 39.3306C25.0299 39.26 24.7038 39.0857 24.4479 38.8298C24.1919 38.5739 24.0176 38.2478 23.947 37.8928C23.8764 37.5378 23.9127 37.1699 24.0512 36.8355C24.1897 36.5011 24.4242 36.2153 24.7252 36.0142C25.0261 35.8131 25.3799 35.7058 25.7419 35.7058C25.9822 35.7058 26.2201 35.7531 26.4422 35.8451C26.6642 35.9371 26.8659 36.0719 27.0359 36.2418C27.2058 36.4117 27.3406 36.6135 27.4326 36.8355C27.5245 37.0575 27.5719 37.2955 27.5719 37.5358Z" fill="#455A64"/>
<path d="M27.5719 28.5258C27.5719 28.8878 27.4645 29.2416 27.2635 29.5425C27.0624 29.8435 26.7766 30.078 26.4422 30.2165C26.1078 30.355 25.7398 30.3913 25.3848 30.3207C25.0299 30.25 24.7038 30.0758 24.4479 29.8198C24.1919 29.5639 24.0176 29.2378 23.947 28.8828C23.8764 28.5279 23.9127 28.1599 24.0512 27.8255C24.1897 27.4911 24.4242 27.2053 24.7252 27.0042C25.0261 26.8032 25.3799 26.6958 25.7419 26.6958C25.9826 26.6945 26.2211 26.7409 26.4437 26.8324C26.6664 26.9239 26.8686 27.0587 27.0388 27.2289C27.209 27.3991 27.3438 27.6013 27.4353 27.8239C27.5268 28.0466 27.5732 28.2851 27.5719 28.5258Z" fill="#455A64"/>
<path d="M25.7419 48.7458C26.7525 48.7458 27.5719 47.9265 27.5719 46.9158C27.5719 45.9051 26.7525 45.0858 25.7419 45.0858C24.7312 45.0858 23.9119 45.9051 23.9119 46.9158C23.9119 47.9265 24.7312 48.7458 25.7419 48.7458Z" fill="#455A64"/>
<path d="M25.7419 58.5058C26.7525 58.5058 27.5719 57.6865 27.5719 56.6758C27.5719 55.6651 26.7525 54.8458 25.7419 54.8458C24.7312 54.8458 23.9119 55.6651 23.9119 56.6758C23.9119 57.6865 24.7312 58.5058 25.7419 58.5058Z" fill="#455A64"/>
<path d="M45.4319 26.3658H35.2318C34.7016 26.3658 34.2719 26.7956 34.2719 27.3258V28.8758C34.2719 29.406 34.7016 29.8358 35.2318 29.8358H45.4319C45.962 29.8358 46.3918 29.406 46.3918 28.8758V27.3258C46.3918 26.7956 45.962 26.3658 45.4319 26.3658Z" fill="#455A64"/>
</svg>
