<svg width="64" height="64" viewBox="0 0 64 64" fill="none" xmlns="http://www.w3.org/2000/svg">
<rect width="64" height="64" rx="32" fill="#161618"/>
<path d="M5.044 39V30.306H7.402V39H5.044ZM10.714 39V33.87C10.714 33.366 10.552 32.976 10.228 32.7C9.916 32.412 9.526 32.268 9.058 32.268C8.746 32.268 8.464 32.334 8.212 32.466C7.96 32.586 7.762 32.766 7.618 33.006C7.474 33.246 7.402 33.534 7.402 33.87L6.484 33.42C6.484 32.748 6.628 32.166 6.916 31.674C7.216 31.182 7.618 30.804 8.122 30.54C8.626 30.264 9.196 30.126 9.832 30.126C10.432 30.126 10.978 30.264 11.47 30.54C11.962 30.804 12.352 31.182 12.64 31.674C12.928 32.154 13.072 32.736 13.072 33.42V39H10.714ZM16.384 39V33.87C16.384 33.366 16.222 32.976 15.898 32.7C15.586 32.412 15.196 32.268 14.728 32.268C14.428 32.268 14.146 32.334 13.882 32.466C13.63 32.586 13.432 32.766 13.288 33.006C13.144 33.246 13.072 33.534 13.072 33.87L11.722 33.546C11.77 32.85 11.956 32.25 12.28 31.746C12.604 31.23 13.03 30.834 13.558 30.558C14.086 30.27 14.674 30.126 15.322 30.126C15.97 30.126 16.552 30.264 17.068 30.54C17.584 30.804 17.992 31.188 18.292 31.692C18.592 32.196 18.742 32.796 18.742 33.492V39H16.384ZM24.2894 39.18C23.4974 39.18 22.7834 38.982 22.1474 38.586C21.5114 38.19 21.0134 37.65 20.6534 36.966C20.2934 36.282 20.1134 35.514 20.1134 34.662C20.1134 33.798 20.2934 33.024 20.6534 32.34C21.0134 31.656 21.5114 31.116 22.1474 30.72C22.7834 30.324 23.4974 30.126 24.2894 30.126C24.9134 30.126 25.4714 30.252 25.9634 30.504C26.4554 30.756 26.8454 31.11 27.1334 31.566C27.4334 32.01 27.5954 32.514 27.6194 33.078V36.21C27.5954 36.786 27.4334 37.296 27.1334 37.74C26.8454 38.184 26.4554 38.538 25.9634 38.802C25.4714 39.054 24.9134 39.18 24.2894 39.18ZM24.7214 37.002C25.3814 37.002 25.9154 36.786 26.3234 36.354C26.7314 35.91 26.9354 35.34 26.9354 34.644C26.9354 34.188 26.8394 33.786 26.6474 33.438C26.4674 33.078 26.2094 32.802 25.8734 32.61C25.5494 32.406 25.1654 32.304 24.7214 32.304C24.2894 32.304 23.9054 32.406 23.5694 32.61C23.2454 32.802 22.9874 33.078 22.7954 33.438C22.6154 33.786 22.5254 34.188 22.5254 34.644C22.5254 35.112 22.6154 35.526 22.7954 35.886C22.9874 36.234 23.2454 36.51 23.5694 36.714C23.9054 36.906 24.2894 37.002 24.7214 37.002ZM26.8094 39V36.66L27.1874 34.536L26.8094 32.448V30.306H29.1494V39H26.8094Z" fill="#192639"/>
<path d="M30.5514 39L35.6454 26.346H37.6434L42.7194 39H40.1094L36.1854 28.614H37.0854L33.1074 39H30.5514ZM33.2514 36.642V34.59H40.0554V36.642H33.2514ZM44.569 39V29.37C44.569 28.674 44.719 28.062 45.019 27.534C45.319 26.994 45.745 26.568 46.297 26.256C46.849 25.944 47.497 25.788 48.241 25.788C48.805 25.788 49.291 25.884 49.699 26.076C50.107 26.268 50.473 26.532 50.797 26.868L49.303 28.38C49.171 28.248 49.027 28.146 48.871 28.074C48.715 28.002 48.517 27.966 48.277 27.966C47.845 27.966 47.509 28.086 47.269 28.326C47.041 28.554 46.927 28.884 46.927 29.316V39H44.569ZM42.553 32.376V30.306H49.501V32.376H42.553ZM54.6398 39.18C53.7638 39.18 52.9718 38.982 52.2638 38.586C51.5678 38.178 51.0098 37.632 50.5898 36.948C50.1818 36.252 49.9778 35.478 49.9778 34.626C49.9778 33.774 50.1818 33.012 50.5898 32.34C50.9978 31.656 51.5558 31.116 52.2638 30.72C52.9718 30.312 53.7578 30.108 54.6218 30.108C55.5098 30.108 56.3018 30.312 56.9978 30.72C57.7058 31.116 58.2638 31.656 58.6718 32.34C59.0798 33.012 59.2838 33.774 59.2838 34.626C59.2838 35.478 59.0798 36.252 58.6718 36.948C58.2638 37.632 57.7058 38.178 56.9978 38.586C56.3018 38.982 55.5158 39.18 54.6398 39.18ZM54.6218 36.984C55.0658 36.984 55.4558 36.888 55.7918 36.696C56.1398 36.492 56.4038 36.216 56.5838 35.868C56.7758 35.508 56.8718 35.1 56.8718 34.644C56.8718 34.188 56.7758 33.786 56.5838 33.438C56.3918 33.09 56.1278 32.82 55.7918 32.628C55.4558 32.424 55.0658 32.322 54.6218 32.322C54.1898 32.322 53.8058 32.424 53.4698 32.628C53.1338 32.82 52.8698 33.09 52.6778 33.438C52.4858 33.786 52.3898 34.188 52.3898 34.644C52.3898 35.1 52.4858 35.508 52.6778 35.868C52.8698 36.216 53.1338 36.492 53.4698 36.696C53.8058 36.888 54.1898 36.984 54.6218 36.984Z" fill="white"/>
</svg>
