<svg width="48" height="48" viewBox="0 0 48 48" fill="none" xmlns="http://www.w3.org/2000/svg">
<rect width="48" height="48" rx="24" fill="#161618"/>
<path d="M5.696 28V22.204H7.268V28H5.696ZM9.476 28V24.58C9.476 24.244 9.368 23.984 9.152 23.8C8.944 23.608 8.684 23.512 8.372 23.512C8.164 23.512 7.976 23.556 7.808 23.644C7.64 23.724 7.508 23.844 7.412 24.004C7.316 24.164 7.268 24.356 7.268 24.58L6.656 24.28C6.656 23.832 6.752 23.444 6.944 23.116C7.144 22.788 7.412 22.536 7.748 22.36C8.084 22.176 8.464 22.084 8.888 22.084C9.288 22.084 9.652 22.176 9.98 22.36C10.308 22.536 10.568 22.788 10.76 23.116C10.952 23.436 11.048 23.824 11.048 24.28V28H9.476ZM13.256 28V24.58C13.256 24.244 13.148 23.984 12.932 23.8C12.724 23.608 12.464 23.512 12.152 23.512C11.952 23.512 11.764 23.556 11.588 23.644C11.42 23.724 11.288 23.844 11.192 24.004C11.096 24.164 11.048 24.356 11.048 24.58L10.148 24.364C10.18 23.9 10.304 23.5 10.52 23.164C10.736 22.82 11.02 22.556 11.372 22.372C11.724 22.18 12.116 22.084 12.548 22.084C12.98 22.084 13.368 22.176 13.712 22.36C14.056 22.536 14.328 22.792 14.528 23.128C14.728 23.464 14.828 23.864 14.828 24.328V28H13.256ZM18.5263 28.12C17.9983 28.12 17.5223 27.988 17.0983 27.724C16.6743 27.46 16.3423 27.1 16.1023 26.644C15.8623 26.188 15.7423 25.676 15.7423 25.108C15.7423 24.532 15.8623 24.016 16.1023 23.56C16.3423 23.104 16.6743 22.744 17.0983 22.48C17.5223 22.216 17.9983 22.084 18.5263 22.084C18.9423 22.084 19.3143 22.168 19.6423 22.336C19.9703 22.504 20.2303 22.74 20.4223 23.044C20.6223 23.34 20.7303 23.676 20.7463 24.052V26.14C20.7303 26.524 20.6223 26.864 20.4223 27.16C20.2303 27.456 19.9703 27.692 19.6423 27.868C19.3143 28.036 18.9423 28.12 18.5263 28.12ZM18.8143 26.668C19.2543 26.668 19.6103 26.524 19.8823 26.236C20.1543 25.94 20.2903 25.56 20.2903 25.096C20.2903 24.792 20.2263 24.524 20.0983 24.292C19.9783 24.052 19.8063 23.868 19.5823 23.74C19.3663 23.604 19.1103 23.536 18.8143 23.536C18.5263 23.536 18.2703 23.604 18.0463 23.74C17.8303 23.868 17.6583 24.052 17.5303 24.292C17.4103 24.524 17.3503 24.792 17.3503 25.096C17.3503 25.408 17.4103 25.684 17.5303 25.924C17.6583 26.156 17.8303 26.34 18.0463 26.476C18.2703 26.604 18.5263 26.668 18.8143 26.668ZM20.2063 28V26.44L20.4583 25.024L20.2063 23.632V22.204H21.7663V28H20.2063Z" fill="#192639"/>
<path d="M22.7009 28L26.0969 19.564H27.4289L30.8129 28H29.0729L26.4569 21.076H27.0569L24.4049 28H22.7009ZM24.5009 26.428V25.06H29.0369V26.428H24.5009ZM32.046 28V21.58C32.046 21.116 32.146 20.708 32.346 20.356C32.546 19.996 32.83 19.712 33.198 19.504C33.566 19.296 33.998 19.192 34.494 19.192C34.87 19.192 35.194 19.256 35.466 19.384C35.738 19.512 35.982 19.688 36.198 19.912L35.202 20.92C35.114 20.832 35.018 20.764 34.914 20.716C34.81 20.668 34.678 20.644 34.518 20.644C34.23 20.644 34.006 20.724 33.846 20.884C33.694 21.036 33.618 21.256 33.618 21.544V28H32.046ZM30.702 23.584V22.204H35.334V23.584H30.702ZM38.7598 28.12C38.1758 28.12 37.6478 27.988 37.1758 27.724C36.7118 27.452 36.3398 27.088 36.0598 26.632C35.7878 26.168 35.6518 25.652 35.6518 25.084C35.6518 24.516 35.7878 24.008 36.0598 23.56C36.3318 23.104 36.7038 22.744 37.1758 22.48C37.6478 22.208 38.1718 22.072 38.7478 22.072C39.3398 22.072 39.8678 22.208 40.3318 22.48C40.8038 22.744 41.1758 23.104 41.4478 23.56C41.7198 24.008 41.8558 24.516 41.8558 25.084C41.8558 25.652 41.7198 26.168 41.4478 26.632C41.1758 27.088 40.8038 27.452 40.3318 27.724C39.8678 27.988 39.3438 28.12 38.7598 28.12ZM38.7478 26.656C39.0438 26.656 39.3038 26.592 39.5278 26.464C39.7598 26.328 39.9358 26.144 40.0558 25.912C40.1838 25.672 40.2478 25.4 40.2478 25.096C40.2478 24.792 40.1838 24.524 40.0558 24.292C39.9278 24.06 39.7518 23.88 39.5278 23.752C39.3038 23.616 39.0438 23.548 38.7478 23.548C38.4598 23.548 38.2038 23.616 37.9798 23.752C37.7558 23.88 37.5798 24.06 37.4518 24.292C37.3238 24.524 37.2598 24.792 37.2598 25.096C37.2598 25.4 37.3238 25.672 37.4518 25.912C37.5798 26.144 37.7558 26.328 37.9798 26.464C38.2038 26.592 38.4598 26.656 38.7478 26.656Z" fill="white"/>
</svg>
