<svg width="83" height="39" viewBox="0 0 83 39" fill="none" xmlns="http://www.w3.org/2000/svg">
<path d="M68.7773 18.7978V22.7422C68.6224 22.929 68.3831 23.1318 68.0596 23.3506C67.736 23.5648 67.319 23.7493 66.8086 23.9043C66.2982 24.0592 65.6807 24.1367 64.9561 24.1367C64.3135 24.1367 63.7279 24.0319 63.1992 23.8223C62.6706 23.6081 62.2148 23.2959 61.832 22.8857C61.4538 22.4756 61.1621 21.9743 60.957 21.3818C60.752 20.7848 60.6494 20.1035 60.6494 19.3379V18.7158C60.6494 17.9502 60.7474 17.2689 60.9434 16.6719C61.1439 16.0749 61.4287 15.5713 61.7979 15.1611C62.167 14.751 62.6068 14.4388 63.1172 14.2246C63.6276 14.0104 64.195 13.9033 64.8193 13.9033C65.6852 13.9033 66.3962 14.0446 66.9521 14.3271C67.5081 14.6051 67.932 14.9925 68.2236 15.4892C68.5199 15.9814 68.7021 16.5465 68.7705 17.1846H66.7812C66.7311 16.8473 66.6354 16.5534 66.4941 16.3027C66.3529 16.0521 66.1501 15.8561 65.8857 15.7148C65.626 15.5736 65.2887 15.5029 64.874 15.5029C64.5322 15.5029 64.2269 15.5736 63.958 15.7148C63.6937 15.8515 63.4704 16.0543 63.2881 16.3232C63.1058 16.5921 62.9668 16.9248 62.8711 17.3213C62.7754 17.7178 62.7275 18.178 62.7275 18.7021V19.3379C62.7275 19.8574 62.7777 20.3177 62.8779 20.7187C62.9782 21.1152 63.1263 21.4502 63.3223 21.7236C63.5228 21.9925 63.7689 22.1953 64.0605 22.332C64.3522 22.4687 64.6917 22.5371 65.0791 22.5371C65.4027 22.5371 65.6715 22.5098 65.8857 22.4551C66.1045 22.4004 66.2799 22.3343 66.4121 22.2568C66.5488 22.1748 66.6536 22.0973 66.7266 22.0244V20.2607H64.8535V18.7978H68.7773ZM72.6123 14.0469V24H70.5684V14.0469H72.6123ZM78.7783 14.0469V24H76.7344V14.0469H78.7783ZM81.8408 14.0469V15.6533H73.7197V14.0469H81.8408Z" fill="#008000"/>
<path d="M48.0757 17.7633L26.6875 0.735324C26.0954 0.264481 25.2927 0 24.4557 0C23.6187 0 22.816 0.264481 22.2239 0.735324L17.7767 4.27237L23.4117 8.75745C26.3714 7.96176 29.1736 10.2174 28.1575 12.56L33.589 16.8832C37.3329 15.8559 40.2806 19.5819 37.4685 21.8183C34.5712 24.1244 29.7894 21.5685 31.3436 18.5677L26.2741 14.5379V25.1456C29.0412 26.2372 28.7087 28.7888 27.2672 29.9336C26.5629 30.4938 25.6079 30.8086 24.6121 30.8086C23.6164 30.8086 22.6613 30.4938 21.957 29.9336C20.0353 28.4014 20.7463 25.8498 23.1875 25.0585V14.3507C20.9125 13.6099 20.4969 11.6747 21.1488 10.4333L15.5936 6.00651L0.924303 17.6841C0.332475 18.1552 0 18.7942 0 19.4604C0 20.1267 0.332475 20.7656 0.924303 21.2368L22.3191 38.2648C22.911 38.7355 23.7135 39 24.5503 39C25.3871 39 26.1896 38.7355 26.7816 38.2648L48.0757 21.316C48.6675 20.8449 49 20.2059 49 19.5396C49 18.8734 48.6675 18.2344 48.0757 17.7633Z" fill="#008000"/>
</svg>
