<svg width="40" height="40" viewBox="0 0 40 40" fill="none" xmlns="http://www.w3.org/2000/svg">
<path d="M23 29V25.5C23 24.5 23.1 24.1 22.5 23.5C25.3 23.2 28 22.1 28 17.5C27.9988 16.305 27.5325 15.1573 26.7 14.3C27.0905 13.262 27.0545 12.1116 26.6 11.1C26.6 11.1 25.5 10.8 23.1 12.4C21.0672 11.8706 18.9328 11.8706 16.9 12.4C14.5 10.8 13.4 11.1 13.4 11.1C12.9455 12.1116 12.9095 13.262 13.3 14.3C12.4675 15.1573 12.0012 16.305 12 17.5C12 22.1 14.7 23.2 17.5 23.5C16.9 24.1 16.9 24.7 17 25.5V29M17 27C12.7 28.4 12.7 24.5 11 24L17 27Z" stroke="#FBFCFD" stroke-width="2" stroke-linecap="round" stroke-linejoin="round"/>
</svg>
