<svg width="131" height="31" viewBox="0 0 131 31" fill="none" xmlns="http://www.w3.org/2000/svg">
<path d="M41.36 7.2V22H39.54V7.2H41.36ZM45.4019 9.26C45.0552 9.26 44.7619 9.14 44.5219 8.9C44.2819 8.66 44.1619 8.36667 44.1619 8.02C44.1619 7.67333 44.2819 7.38 44.5219 7.14C44.7619 6.9 45.0552 6.78 45.4019 6.78C45.7352 6.78 46.0152 6.9 46.2419 7.14C46.4819 7.38 46.6019 7.67333 46.6019 8.02C46.6019 8.36667 46.4819 8.66 46.2419 8.9C46.0152 9.14 45.7352 9.26 45.4019 9.26ZM46.2819 11.04V22H44.4619V11.04H46.2819ZM54.7238 10.84C56.0571 10.84 57.1371 11.2467 57.9638 12.06C58.7904 12.86 59.2038 14.02 59.2038 15.54V22H57.4038V15.8C57.4038 14.7067 57.1304 13.8733 56.5838 13.3C56.0371 12.7133 55.2904 12.42 54.3438 12.42C53.3838 12.42 52.6171 12.72 52.0438 13.32C51.4838 13.92 51.2038 14.7933 51.2038 15.94V22H49.3838V11.04H51.2038V12.6C51.5638 12.04 52.0504 11.6067 52.6638 11.3C53.2904 10.9933 53.9771 10.84 54.7238 10.84ZM68.2967 22L63.9967 17.16V22H62.1767V7.2H63.9967V15.9L68.2167 11.04H70.7567L65.5967 16.5L70.7767 22H68.2967ZM82.4697 16.1C82.4697 16.4467 82.4497 16.8133 82.4097 17.2H73.6497C73.7164 18.28 74.083 19.1267 74.7497 19.74C75.4297 20.34 76.2497 20.64 77.2097 20.64C77.9964 20.64 78.6497 20.46 79.1697 20.1C79.703 19.7267 80.0764 19.2333 80.2897 18.62H82.2497C81.9564 19.6733 81.3697 20.5333 80.4897 21.2C79.6097 21.8533 78.5164 22.18 77.2097 22.18C76.1697 22.18 75.2364 21.9467 74.4097 21.48C73.5964 21.0133 72.9564 20.3533 72.4897 19.5C72.023 18.6333 71.7897 17.6333 71.7897 16.5C71.7897 15.3667 72.0164 14.3733 72.4697 13.52C72.923 12.6667 73.5564 12.0133 74.3697 11.56C75.1964 11.0933 76.143 10.86 77.2097 10.86C78.2497 10.86 79.1697 11.0867 79.9697 11.54C80.7697 11.9933 81.383 12.62 81.8097 13.42C82.2497 14.2067 82.4697 15.1 82.4697 16.1ZM80.5897 15.72C80.5897 15.0267 80.4364 14.4333 80.1297 13.94C79.823 13.4333 79.403 13.0533 78.8697 12.8C78.3497 12.5333 77.7697 12.4 77.1297 12.4C76.2097 12.4 75.423 12.6933 74.7697 13.28C74.1297 13.8667 73.763 14.68 73.6697 15.72H80.5897ZM84.192 16.48C84.192 15.36 84.4187 14.38 84.872 13.54C85.3254 12.6867 85.9454 12.0267 86.732 11.56C87.532 11.0933 88.4254 10.86 89.412 10.86C90.2654 10.86 91.0587 11.06 91.792 11.46C92.5254 11.8467 93.0854 12.36 93.472 13V7.2H95.312V22H93.472V19.94C93.112 20.5933 92.5787 21.1333 91.872 21.56C91.1654 21.9733 90.3387 22.18 89.392 22.18C88.4187 22.18 87.532 21.94 86.732 21.46C85.9454 20.98 85.3254 20.3067 84.872 19.44C84.4187 18.5733 84.192 17.5867 84.192 16.48ZM93.472 16.5C93.472 15.6733 93.3054 14.9533 92.972 14.34C92.6387 13.7267 92.1854 13.26 91.612 12.94C91.052 12.6067 90.432 12.44 89.752 12.44C89.072 12.44 88.452 12.6 87.892 12.92C87.332 13.24 86.8854 13.7067 86.552 14.32C86.2187 14.9333 86.052 15.6533 86.052 16.48C86.052 17.32 86.2187 18.0533 86.552 18.68C86.8854 19.2933 87.332 19.7667 87.892 20.1C88.452 20.42 89.072 20.58 89.752 20.58C90.432 20.58 91.052 20.42 91.612 20.1C92.1854 19.7667 92.6387 19.2933 92.972 18.68C93.3054 18.0533 93.472 17.3267 93.472 16.5ZM99.3277 9.26C98.981 9.26 98.6877 9.14 98.4477 8.9C98.2077 8.66 98.0877 8.36667 98.0877 8.02C98.0877 7.67333 98.2077 7.38 98.4477 7.14C98.6877 6.9 98.981 6.78 99.3277 6.78C99.661 6.78 99.941 6.9 100.168 7.14C100.408 7.38 100.528 7.67333 100.528 8.02C100.528 8.36667 100.408 8.66 100.168 8.9C99.941 9.14 99.661 9.26 99.3277 9.26ZM100.208 11.04V22H98.3877V11.04H100.208ZM108.65 10.84C109.983 10.84 111.063 11.2467 111.89 12.06C112.716 12.86 113.13 14.02 113.13 15.54V22H111.33V15.8C111.33 14.7067 111.056 13.8733 110.51 13.3C109.963 12.7133 109.216 12.42 108.27 12.42C107.31 12.42 106.543 12.72 105.97 13.32C105.41 13.92 105.13 14.7933 105.13 15.94V22H103.31V11.04H105.13V12.6C105.49 12.04 105.976 11.6067 106.59 11.3C107.216 10.9933 107.903 10.84 108.65 10.84Z" fill="white"/>
<path d="M24.1429 0H1.85134C0.829911 0 0 0.841518 0 1.87455V24.1254C0 25.1585 0.829911 26 1.85134 26H24.1429C25.1643 26 26 25.1585 26 24.1254V1.87455C26 0.841518 25.1643 0 24.1429 0ZM7.85804 22.2857H4.00446V9.87768H7.86384V22.2857H7.85804ZM5.93125 8.18304C4.69509 8.18304 3.69687 7.17902 3.69687 5.94866C3.69687 4.7183 4.69509 3.71429 5.93125 3.71429C7.16161 3.71429 8.16562 4.7183 8.16562 5.94866C8.16562 7.18482 7.16741 8.18304 5.93125 8.18304ZM22.3031 22.2857H18.4496V16.25C18.4496 14.8107 18.4205 12.9594 16.4473 12.9594C14.4393 12.9594 14.1317 14.5263 14.1317 16.1455V22.2857H10.2781V9.87768H13.975V11.5723H14.0272C14.5437 10.5973 15.8031 9.57009 17.6777 9.57009C21.5777 9.57009 22.3031 12.1411 22.3031 15.4839V22.2857Z" fill="#9EF01A" fill-opacity="0.36"/>
</svg>
