<svg width="29" height="14" viewBox="0 0 29 14" fill="none" xmlns="http://www.w3.org/2000/svg">
<rect width="29" height="14" rx="4" fill="#9BA1A6"/>
<path d="M8.61364 12.1321C7.98011 12.1321 7.43466 11.9886 6.97727 11.7017C6.52273 11.4119 6.1733 11.0128 5.92898 10.5043C5.68466 9.99574 5.5625 9.41335 5.5625 8.7571C5.5625 8.09233 5.6875 7.50568 5.9375 6.99716C6.1875 6.4858 6.53977 6.08665 6.99432 5.79972C7.44886 5.51278 7.98438 5.36932 8.60085 5.36932C9.09801 5.36932 9.54119 5.46165 9.9304 5.64631C10.3196 5.82812 10.6335 6.08381 10.8722 6.41335C11.1136 6.7429 11.2571 7.12784 11.3026 7.56818H10.0625C9.99432 7.26136 9.83807 6.99716 9.59375 6.77557C9.35227 6.55398 9.02841 6.44318 8.62216 6.44318C8.26705 6.44318 7.95597 6.53693 7.68892 6.72443C7.42472 6.90909 7.21875 7.1733 7.07102 7.51705C6.9233 7.85795 6.84943 8.26136 6.84943 8.72727C6.84943 9.20455 6.92188 9.61648 7.06676 9.96307C7.21165 10.3097 7.41619 10.5781 7.6804 10.7685C7.94744 10.9588 8.26136 11.054 8.62216 11.054C8.86364 11.054 9.08239 11.0099 9.27841 10.9219C9.47727 10.831 9.64347 10.7017 9.77699 10.5341C9.91335 10.3665 10.0085 10.1648 10.0625 9.92898H11.3026C11.2571 10.3523 11.1193 10.7301 10.8892 11.0625C10.6591 11.3949 10.3509 11.6562 9.96449 11.8466C9.58097 12.0369 9.13068 12.1321 8.61364 12.1321ZM15.7205 5.45455V6.47727H12.1452V5.45455H15.7205ZM13.104 3.88636H14.3782V10.0781C14.3782 10.3253 14.4151 10.5114 14.489 10.6364C14.5629 10.7585 14.658 10.8423 14.7745 10.8878C14.8938 10.9304 15.0231 10.9517 15.1623 10.9517C15.2646 10.9517 15.354 10.9446 15.4308 10.9304C15.5075 10.9162 15.5671 10.9048 15.6097 10.8963L15.8398 11.9489C15.766 11.9773 15.6609 12.0057 15.5245 12.0341C15.3881 12.0653 15.2177 12.0824 15.0131 12.0852C14.6779 12.0909 14.3654 12.0312 14.0756 11.9062C13.7859 11.7812 13.5515 11.5881 13.3725 11.3267C13.1935 11.0653 13.104 10.7372 13.104 10.3423V3.88636ZM17.13 12V5.45455H18.3615V6.49432H18.4297C18.549 6.14205 18.7592 5.86506 19.0604 5.66335C19.3643 5.45881 19.7081 5.35653 20.0916 5.35653C20.1712 5.35653 20.2649 5.35937 20.3729 5.36506C20.4837 5.37074 20.5703 5.37784 20.6328 5.38636V6.60511C20.5817 6.59091 20.4908 6.57528 20.3601 6.55824C20.2294 6.53835 20.0987 6.52841 19.968 6.52841C19.6669 6.52841 19.3984 6.59233 19.1626 6.72017C18.9297 6.84517 18.745 7.01989 18.6087 7.24432C18.4723 7.46591 18.4041 7.71875 18.4041 8.00284V12H17.13ZM23.0096 3.27273V12H21.7354V3.27273H23.0096Z" fill="#26292B"/>
</svg>
