<svg width="169" height="19" viewBox="0 0 169 19" fill="none" xmlns="http://www.w3.org/2000/svg">
<path d="M0.728 18V1.128H3.032L9.872 12.072H8.552L15.368 1.128H17.672V18H14.432V6.72L15.056 6.912L10.304 14.544H8.096L3.344 6.912L3.992 6.72V18H0.728ZM25.6306 18.24C24.5746 18.24 23.6226 17.976 22.7746 17.448C21.9266 16.92 21.2626 16.2 20.7826 15.288C20.3026 14.376 20.0626 13.352 20.0626 12.216C20.0626 11.064 20.3026 10.032 20.7826 9.12C21.2626 8.208 21.9266 7.488 22.7746 6.96C23.6226 6.432 24.5746 6.168 25.6306 6.168C26.4626 6.168 27.2066 6.336 27.8626 6.672C28.5186 7.008 29.0386 7.48 29.4226 8.088C29.8226 8.68 30.0386 9.352 30.0706 10.104V14.28C30.0386 15.048 29.8226 15.728 29.4226 16.32C29.0386 16.912 28.5186 17.384 27.8626 17.736C27.2066 18.072 26.4626 18.24 25.6306 18.24ZM26.2066 15.336C27.0866 15.336 27.7986 15.048 28.3426 14.472C28.8866 13.88 29.1586 13.12 29.1586 12.192C29.1586 11.584 29.0306 11.048 28.7746 10.584C28.5346 10.104 28.1906 9.736 27.7426 9.48C27.3106 9.208 26.7986 9.072 26.2066 9.072C25.6306 9.072 25.1186 9.208 24.6706 9.48C24.2386 9.736 23.8946 10.104 23.6386 10.584C23.3986 11.048 23.2786 11.584 23.2786 12.192C23.2786 12.816 23.3986 13.368 23.6386 13.848C23.8946 14.312 24.2386 14.68 24.6706 14.952C25.1186 15.208 25.6306 15.336 26.2066 15.336ZM28.9906 18V14.88L29.4946 12.048L28.9906 9.264V6.408H32.1106V18H28.9906ZM42.692 18V11.352C42.692 10.664 42.476 10.104 42.044 9.672C41.612 9.24 41.052 9.024 40.364 9.024C39.916 9.024 39.516 9.12 39.164 9.312C38.812 9.504 38.532 9.776 38.324 10.128C38.132 10.48 38.036 10.888 38.036 11.352L36.812 10.728C36.812 9.816 37.004 9.024 37.388 8.352C37.788 7.664 38.332 7.128 39.02 6.744C39.724 6.36 40.516 6.168 41.396 6.168C42.244 6.168 43.004 6.384 43.676 6.816C44.348 7.232 44.876 7.784 45.26 8.472C45.644 9.144 45.836 9.872 45.836 10.656V18H42.692ZM34.892 18V6.408H38.036V18H34.892ZM53.3126 18.24C52.2886 18.24 51.3766 18.024 50.5766 17.592C49.7926 17.16 49.1766 16.56 48.7286 15.792C48.2806 15.024 48.0566 14.136 48.0566 13.128V6.408H51.2246V13.056C51.2246 13.536 51.3046 13.952 51.4646 14.304C51.6246 14.64 51.8646 14.896 52.1846 15.072C52.5046 15.248 52.8806 15.336 53.3126 15.336C53.9686 15.336 54.4806 15.136 54.8486 14.736C55.2166 14.336 55.4006 13.776 55.4006 13.056V6.408H58.5446V13.128C58.5446 14.152 58.3206 15.048 57.8726 15.816C57.4406 16.584 56.8246 17.184 56.0246 17.616C55.2406 18.032 54.3366 18.24 53.3126 18.24ZM66.5923 18.24C65.3763 18.24 64.2963 17.984 63.3523 17.472C62.4083 16.944 61.6563 16.224 61.0963 15.312C60.5523 14.4 60.2803 13.36 60.2803 12.192C60.2803 11.04 60.5443 10.016 61.0723 9.12C61.6163 8.208 62.3523 7.488 63.2803 6.96C64.2083 6.416 65.2403 6.144 66.3763 6.144C67.4963 6.144 68.4803 6.4 69.3283 6.912C70.1923 7.408 70.8643 8.096 71.3443 8.976C71.8403 9.84 72.0883 10.824 72.0883 11.928C72.0883 12.136 72.0723 12.352 72.0403 12.576C72.0243 12.784 71.9843 13.024 71.9203 13.296L62.1763 13.32V10.968L70.4563 10.944L69.1843 11.928C69.1523 11.24 69.0243 10.664 68.8003 10.2C68.5923 9.736 68.2803 9.384 67.8643 9.144C67.4643 8.888 66.9683 8.76 66.3763 8.76C65.7523 8.76 65.2083 8.904 64.7443 9.192C64.2803 9.464 63.9203 9.856 63.6643 10.368C63.4243 10.864 63.3043 11.456 63.3043 12.144C63.3043 12.848 63.4323 13.464 63.6883 13.992C63.9603 14.504 64.3443 14.904 64.8403 15.192C65.3363 15.464 65.9123 15.6 66.5683 15.6C67.1603 15.6 67.6963 15.504 68.1763 15.312C68.6563 15.104 69.0723 14.8 69.4243 14.4L71.2723 16.248C70.7123 16.904 70.0243 17.4 69.2083 17.736C68.4083 18.072 67.5363 18.24 66.5923 18.24ZM74.0326 18V0.647999H77.1766V18H74.0326ZM85.5063 18.24C84.2903 18.24 83.2103 17.984 82.2663 17.472C81.3223 16.944 80.5703 16.224 80.0103 15.312C79.4663 14.4 79.1943 13.36 79.1943 12.192C79.1943 11.04 79.4583 10.016 79.9863 9.12C80.5303 8.208 81.2663 7.488 82.1943 6.96C83.1223 6.416 84.1543 6.144 85.2903 6.144C86.4103 6.144 87.3943 6.4 88.2423 6.912C89.1063 7.408 89.7783 8.096 90.2583 8.976C90.7543 9.84 91.0023 10.824 91.0023 11.928C91.0023 12.136 90.9863 12.352 90.9543 12.576C90.9383 12.784 90.8983 13.024 90.8343 13.296L81.0903 13.32V10.968L89.3703 10.944L88.0983 11.928C88.0663 11.24 87.9383 10.664 87.7143 10.2C87.5063 9.736 87.1943 9.384 86.7783 9.144C86.3783 8.888 85.8823 8.76 85.2903 8.76C84.6663 8.76 84.1223 8.904 83.6583 9.192C83.1943 9.464 82.8343 9.856 82.5783 10.368C82.3383 10.864 82.2183 11.456 82.2183 12.144C82.2183 12.848 82.3463 13.464 82.6023 13.992C82.8743 14.504 83.2583 14.904 83.7543 15.192C84.2503 15.464 84.8263 15.6 85.4823 15.6C86.0743 15.6 86.6103 15.504 87.0903 15.312C87.5703 15.104 87.9863 14.8 88.3383 14.4L90.1863 16.248C89.6263 16.904 88.9383 17.4 88.1223 17.736C87.3223 18.072 86.4503 18.24 85.5063 18.24Z" fill="#07303B"/>
<path d="M92.0347 18L98.8267 1.128H101.491L108.259 18H104.779L99.5467 4.152H100.747L95.4427 18H92.0347ZM95.6347 14.856V12.12H104.707V14.856H95.6347ZM110.725 18V5.16C110.725 4.232 110.925 3.416 111.325 2.712C111.725 1.992 112.293 1.424 113.029 1.008C113.765 0.592 114.629 0.383999 115.621 0.383999C116.373 0.383999 117.021 0.511999 117.565 0.767999C118.109 1.024 118.597 1.376 119.029 1.824L117.037 3.84C116.861 3.664 116.669 3.528 116.461 3.432C116.253 3.336 115.989 3.288 115.669 3.288C115.093 3.288 114.645 3.448 114.325 3.768C114.021 4.072 113.869 4.512 113.869 5.088V18H110.725ZM108.037 9.168V6.408H117.301V9.168H108.037ZM124.153 18.24C122.985 18.24 121.929 17.976 120.985 17.448C120.057 16.904 119.313 16.176 118.753 15.264C118.209 14.336 117.937 13.304 117.937 12.168C117.937 11.032 118.209 10.016 118.753 9.12C119.297 8.208 120.041 7.488 120.985 6.96C121.929 6.416 122.977 6.144 124.129 6.144C125.313 6.144 126.369 6.416 127.297 6.96C128.241 7.488 128.985 8.208 129.529 9.12C130.073 10.016 130.345 11.032 130.345 12.168C130.345 13.304 130.073 14.336 129.529 15.264C128.985 16.176 128.241 16.904 127.297 17.448C126.369 17.976 125.321 18.24 124.153 18.24ZM124.129 15.312C124.721 15.312 125.241 15.184 125.689 14.928C126.153 14.656 126.505 14.288 126.745 13.824C127.001 13.344 127.129 12.8 127.129 12.192C127.129 11.584 127.001 11.048 126.745 10.584C126.489 10.12 126.137 9.76 125.689 9.504C125.241 9.232 124.721 9.096 124.129 9.096C123.553 9.096 123.041 9.232 122.593 9.504C122.145 9.76 121.793 10.12 121.537 10.584C121.281 11.048 121.153 11.584 121.153 12.192C121.153 12.8 121.281 13.344 121.537 13.824C121.793 14.288 122.145 14.656 122.593 14.928C123.041 15.184 123.553 15.312 124.129 15.312ZM140.169 18V11.352C140.169 10.664 139.953 10.104 139.521 9.672C139.089 9.24 138.529 9.024 137.841 9.024C137.393 9.024 136.993 9.12 136.641 9.312C136.289 9.504 136.009 9.776 135.801 10.128C135.609 10.48 135.513 10.888 135.513 11.352L134.289 10.728C134.289 9.816 134.481 9.024 134.865 8.352C135.265 7.664 135.809 7.128 136.497 6.744C137.201 6.36 137.993 6.168 138.873 6.168C139.721 6.168 140.481 6.384 141.153 6.816C141.825 7.232 142.353 7.784 142.737 8.472C143.121 9.144 143.313 9.872 143.313 10.656V18H140.169ZM132.369 18V6.408H135.513V18H132.369ZM149.829 18.264C149.173 18.264 148.525 18.176 147.885 18C147.261 17.824 146.685 17.584 146.157 17.28C145.629 16.96 145.173 16.576 144.789 16.128L146.661 14.232C147.061 14.68 147.525 15.016 148.053 15.24C148.581 15.464 149.165 15.576 149.805 15.576C150.317 15.576 150.701 15.504 150.957 15.36C151.229 15.216 151.365 15 151.365 14.712C151.365 14.392 151.221 14.144 150.933 13.968C150.661 13.792 150.301 13.648 149.853 13.536C149.405 13.408 148.933 13.272 148.437 13.128C147.957 12.968 147.493 12.768 147.045 12.528C146.597 12.272 146.229 11.928 145.941 11.496C145.669 11.048 145.533 10.472 145.533 9.768C145.533 9.032 145.709 8.392 146.061 7.848C146.429 7.304 146.949 6.88 147.621 6.576C148.293 6.272 149.085 6.12 149.997 6.12C150.957 6.12 151.821 6.288 152.589 6.624C153.373 6.96 154.021 7.464 154.533 8.136L152.637 10.032C152.285 9.6 151.885 9.288 151.437 9.096C151.005 8.904 150.533 8.808 150.021 8.808C149.557 8.808 149.197 8.88 148.941 9.024C148.701 9.168 148.581 9.368 148.581 9.624C148.581 9.912 148.717 10.136 148.989 10.296C149.277 10.456 149.645 10.6 150.093 10.728C150.541 10.84 151.005 10.976 151.485 11.136C151.981 11.28 152.445 11.488 152.877 11.76C153.325 12.032 153.685 12.392 153.957 12.84C154.245 13.288 154.389 13.864 154.389 14.568C154.389 15.704 153.981 16.608 153.165 17.28C152.349 17.936 151.237 18.264 149.829 18.264ZM161.957 18.24C160.789 18.24 159.733 17.976 158.789 17.448C157.861 16.904 157.117 16.176 156.557 15.264C156.013 14.336 155.741 13.304 155.741 12.168C155.741 11.032 156.013 10.016 156.557 9.12C157.101 8.208 157.845 7.488 158.789 6.96C159.733 6.416 160.781 6.144 161.933 6.144C163.117 6.144 164.173 6.416 165.101 6.96C166.045 7.488 166.789 8.208 167.333 9.12C167.877 10.016 168.149 11.032 168.149 12.168C168.149 13.304 167.877 14.336 167.333 15.264C166.789 16.176 166.045 16.904 165.101 17.448C164.173 17.976 163.125 18.24 161.957 18.24ZM161.933 15.312C162.525 15.312 163.045 15.184 163.493 14.928C163.957 14.656 164.309 14.288 164.549 13.824C164.805 13.344 164.933 12.8 164.933 12.192C164.933 11.584 164.805 11.048 164.549 10.584C164.293 10.12 163.941 9.76 163.493 9.504C163.045 9.232 162.525 9.096 161.933 9.096C161.357 9.096 160.845 9.232 160.397 9.504C159.949 9.76 159.597 10.12 159.341 10.584C159.085 11.048 158.957 11.584 158.957 12.192C158.957 12.8 159.085 13.344 159.341 13.824C159.597 14.288 159.949 14.656 160.397 14.928C160.845 15.184 161.357 15.312 161.933 15.312Z" fill="white"/>
</svg>
