<svg width="212" height="31" viewBox="0 0 212 31" fill="none" xmlns="http://www.w3.org/2000/svg">
<path d="M8.20312 7.39062C8.33333 7.49479 8.4375 7.625 8.51562 7.78125C8.61979 7.9375 8.69792 8.10677 8.75 8.28906C8.82812 8.4974 8.88021 8.71875 8.90625 8.95312C8.93229 9.1875 8.94531 9.42188 8.94531 9.65625C8.94531 9.86458 8.93229 10.0729 8.90625 10.2812C8.88021 10.4896 8.84115 10.6849 8.78906 10.8672C7.79948 11.4922 6.90104 12.0781 6.09375 12.625C5.3125 13.1458 4.64844 13.6016 4.10156 13.9922C3.45052 14.4609 2.8776 14.8906 2.38281 15.2812C2.82552 15.724 3.3724 16.2057 4.02344 16.7266C4.57031 17.1953 5.23438 17.7552 6.01562 18.4062C6.79688 19.0312 7.69531 19.7474 8.71094 20.5547C8.76302 20.763 8.77604 21.0104 8.75 21.2969C8.75 21.5573 8.72396 21.8177 8.67188 22.0781C8.61979 22.3646 8.55469 22.6641 8.47656 22.9766C8.42448 23.2109 8.3724 23.4062 8.32031 23.5625C8.26823 23.6927 8.21615 23.8229 8.16406 23.9531C8.13802 24.0573 8.11198 24.0833 8.08594 24.0312C6.8099 23.0417 5.6901 22.1172 4.72656 21.2578C3.78906 20.3984 3.00781 19.6562 2.38281 19.0312C1.6276 18.3021 0.989583 17.638 0.46875 17.0391C0.364583 16.9089 0.273438 16.6875 0.195312 16.375C0.117188 16.0365 0.0651042 15.6979 0.0390625 15.3594C0.0130208 14.9948 0 14.6693 0 14.3828C0.0260417 14.0703 0.0911458 13.875 0.195312 13.7969C0.533854 13.4844 0.911458 13.1589 1.32812 12.8203C1.74479 12.4557 2.16146 12.0911 2.57812 11.7266C3.02083 11.362 3.46354 11.0104 3.90625 10.6719C4.34896 10.3073 4.76562 9.98177 5.15625 9.69531C5.54688 9.38281 5.92448 9.08333 6.28906 8.79688C6.60156 8.53646 6.92708 8.28906 7.26562 8.05469C7.63021 7.79427 7.94271 7.57292 8.20312 7.39062ZM202.812 7.39062C203.047 7.57292 203.333 7.79427 203.672 8.05469C204.036 8.28906 204.375 8.53646 204.688 8.79688C205.052 9.08333 205.43 9.38281 205.82 9.69531C206.602 10.2943 207.448 10.9844 208.359 11.7656C209.297 12.5208 210.104 13.1979 210.781 13.7969C210.885 13.875 210.951 14.0703 210.977 14.3828C211.003 14.6693 210.99 14.9948 210.938 15.3594C210.911 15.6979 210.859 16.0365 210.781 16.375C210.703 16.6875 210.612 16.9089 210.508 17.0391C209.987 17.638 209.362 18.3021 208.633 19.0312C208.008 19.6562 207.214 20.3984 206.25 21.2578C205.312 22.1172 204.206 23.0417 202.93 24.0312C202.904 24.0833 202.865 24.0573 202.812 23.9531C202.786 23.8229 202.747 23.6927 202.695 23.5625C202.617 23.4062 202.552 23.2109 202.5 22.9766C202.422 22.6641 202.357 22.3646 202.305 22.0781C202.253 21.8177 202.214 21.5573 202.188 21.2969C202.188 21.0104 202.214 20.763 202.266 20.5547C203.281 19.7474 204.18 19.0312 204.961 18.4062C205.742 17.7552 206.406 17.1953 206.953 16.7266C207.578 16.2057 208.125 15.724 208.594 15.2812C208.099 14.8906 207.526 14.4609 206.875 13.9922C206.328 13.6016 205.651 13.1458 204.844 12.625C204.062 12.0781 203.177 11.4922 202.188 10.8672C202.109 10.6849 202.057 10.4896 202.031 10.2812C202.031 10.0729 202.031 9.86458 202.031 9.65625C202.031 9.42188 202.044 9.1875 202.07 8.95312C202.096 8.71875 202.148 8.4974 202.227 8.28906C202.279 8.10677 202.344 7.9375 202.422 7.78125C202.526 7.625 202.656 7.49479 202.812 7.39062Z" fill="#70E000"/>
<path d="M40.9375 30.3203C40.1562 30.2943 39.6224 30.0469 39.3359 29.5781C39.0495 29.1354 38.8802 28.5104 38.8281 27.7031C38.776 26.8958 38.8021 25.9453 38.9062 24.8516C39.0104 23.7318 39.0625 22.5208 39.0625 21.2188C39.0885 18.6406 39.1797 16.2969 39.3359 14.1875C39.5182 12.0521 39.5703 9.98177 39.4922 7.97656C39.4922 7.82031 39.4922 7.67708 39.4922 7.54688C39.4922 7.41667 39.4792 7.28646 39.4531 7.15625C39.3229 7.59896 39.1667 8.10677 38.9844 8.67969C38.8281 9.22656 38.6328 9.83854 38.3984 10.5156C37.9297 11.974 37.4609 13.4714 36.9922 15.0078C36.5495 16.5443 36.1068 18.0417 35.6641 19.5C35.2474 20.9323 34.8438 22.2734 34.4531 23.5234C34.0885 24.7474 33.763 25.776 33.4766 26.6094C33.1901 27.4427 32.9036 28.0547 32.6172 28.4453C32.3568 28.862 32.0833 29.1484 31.7969 29.3047C31.5365 29.4609 31.263 29.526 30.9766 29.5C30.7161 29.474 30.4557 29.4479 30.1953 29.4219C30.0911 28.5365 29.8958 27.4948 29.6094 26.2969C29.3229 25.099 29.0234 23.9531 28.7109 22.8594C28.3464 21.5833 27.9427 20.2812 27.5 18.9531C26.901 16.6615 26.276 14.5651 25.625 12.6641C24.974 10.763 24.4661 9.20052 24.1016 7.97656C23.9453 9.30469 23.8281 10.8281 23.75 12.5469C23.6719 14.2656 23.6198 15.9844 23.5938 17.7031C23.5677 19.4219 23.5807 21.0495 23.6328 22.5859C23.6849 24.0964 23.763 25.3203 23.8672 26.2578C23.8932 26.6484 23.9453 27.0391 24.0234 27.4297C24.0755 27.7682 24.1406 28.1068 24.2188 28.4453C24.3229 28.8099 24.4401 29.1354 24.5703 29.4219C24.4401 29.526 24.2839 29.6172 24.1016 29.6953C23.9193 29.7734 23.724 29.8385 23.5156 29.8906C23.2812 29.9688 23.0339 30.0339 22.7734 30.0859C21.7578 30.2943 21.0156 30.2682 20.5469 30.0078C20.1042 29.7474 19.8307 29.2266 19.7266 28.4453C19.6745 28.0547 19.6354 27.3255 19.6094 26.2578C19.5833 25.1901 19.5703 23.9661 19.5703 22.5859C19.5964 21.1797 19.6354 19.7083 19.6875 18.1719C19.7396 16.6354 19.8177 15.2031 19.9219 13.875C20.026 12.8073 20.1302 11.6484 20.2344 10.3984C20.3385 9.30469 20.4427 8.04167 20.5469 6.60938C20.651 5.17708 20.7682 3.6276 20.8984 1.96094C20.9766 1.80469 21.1068 1.67448 21.2891 1.57031C21.4714 1.4401 21.6667 1.33594 21.875 1.25781C22.1094 1.15365 22.3698 1.07552 22.6562 1.02344C23.099 0.945312 23.4896 0.880208 23.8281 0.828125C24.1146 0.776042 24.375 0.736979 24.6094 0.710938C24.8698 0.684896 24.974 0.684896 24.9219 0.710938C25.2604 1.41406 25.5208 2 25.7031 2.46875C25.8854 2.91146 26.0677 3.44531 26.25 4.07031C26.4583 4.69531 26.7057 5.51562 26.9922 6.53125C27.3047 7.54688 27.7474 8.96615 28.3203 10.7891C29.1016 13.3151 29.7656 15.5156 30.3125 17.3906C30.8854 19.2656 31.3151 20.6979 31.6016 21.6875C31.7839 21.349 31.9661 20.9844 32.1484 20.5938C32.3307 20.1771 32.513 19.6823 32.6953 19.1094C32.9036 18.5365 33.112 17.8724 33.3203 17.1172C33.5547 16.3359 33.8151 15.4115 34.1016 14.3438C34.4661 13.1719 34.8438 11.9089 35.2344 10.5547C35.5469 9.40885 35.8854 8.10677 36.25 6.64844C36.6406 5.16406 37.0052 3.6276 37.3438 2.03906C38.1771 1.70052 38.8542 1.45312 39.375 1.29688C39.8958 1.11458 40.2995 0.971354 40.5859 0.867188C40.9245 0.763021 41.1719 0.697917 41.3281 0.671875C41.4844 0.697917 41.6406 0.776042 41.7969 0.90625C41.9271 1.03646 42.0833 1.21875 42.2656 1.45312C42.4479 1.6875 42.6432 2.03906 42.8516 2.50781C42.8516 2.8724 42.8516 3.45833 42.8516 4.26562C42.8516 5.07292 42.8516 6.01042 42.8516 7.07812C42.8516 8.11979 42.8385 9.2526 42.8125 10.4766C42.7865 11.7005 42.7604 12.9375 42.7344 14.1875C42.7344 15.4115 42.7214 16.6094 42.6953 17.7812C42.6953 18.9531 42.6823 19.9948 42.6562 20.9062C42.6042 22.2865 42.5911 23.4583 42.6172 24.4219C42.6693 25.3854 42.7474 26.1927 42.8516 26.8438C42.9818 27.4688 43.138 27.9766 43.3203 28.3672C43.5286 28.7578 43.776 29.0703 44.0625 29.3047C43.9844 29.3568 43.8281 29.4349 43.5938 29.5391C43.3854 29.6693 43.125 29.7865 42.8125 29.8906C42.5 30.0208 42.1745 30.125 41.8359 30.2031C41.4974 30.2812 41.1979 30.3203 40.9375 30.3203ZM57.7734 25.0078C57.8255 25.1901 57.9036 25.3594 58.0078 25.5156C58.0859 25.6458 58.1901 25.776 58.3203 25.9062C58.4766 26.0104 58.6589 26.0755 58.8672 26.1016C58.6849 26.4661 58.5026 26.7135 58.3203 26.8438C58.2161 26.9219 58.125 26.974 58.0469 27C57.8125 27.0781 57.4609 27.1172 56.9922 27.1172C56.5234 27.1172 56.0677 26.974 55.625 26.6875C55.4688 26.5573 55.3255 26.362 55.1953 26.1016C55.0651 25.8932 54.9479 25.6068 54.8438 25.2422C54.7656 24.8516 54.7005 24.3568 54.6484 23.7578C54.2839 24.5391 53.8672 25.1641 53.3984 25.6328C52.9557 26.0755 52.513 26.401 52.0703 26.6094C51.5755 26.8958 51.0677 27.0651 50.5469 27.1172C49.8958 27.1693 49.2708 27.0651 48.6719 26.8047C48.099 26.5182 47.6042 26.1016 47.1875 25.5547C46.7969 24.9818 46.4974 24.2917 46.2891 23.4844C46.0807 22.6771 46.0156 21.7656 46.0938 20.75C46.1719 19.6823 46.3802 18.7318 46.7188 17.8984C47.0573 17.0651 47.4609 16.3229 47.9297 15.6719C48.3984 15.0208 48.8932 14.474 49.4141 14.0312C49.9349 13.5625 50.4297 13.1849 50.8984 12.8984C51.3932 12.5859 51.8099 12.3646 52.1484 12.2344C52.513 12.0781 52.7474 11.987 52.8516 11.9609C53.138 11.8828 53.3854 11.8568 53.5938 11.8828C53.8021 11.9089 53.9844 12.026 54.1406 12.2344C54.1927 12.3125 54.2578 12.4036 54.3359 12.5078C54.388 12.612 54.4531 12.7552 54.5312 12.9375C54.6094 13.0938 54.6745 13.276 54.7266 13.4844C54.1016 13.7708 53.5156 14.0964 52.9688 14.4609C52.4219 14.7995 51.9141 15.2161 51.4453 15.7109C51.0026 16.2057 50.612 16.8047 50.2734 17.5078C49.9349 18.2109 49.6745 19.0703 49.4922 20.0859C49.2318 21.362 49.2969 22.3906 49.6875 23.1719C50.1042 23.9531 50.6641 24.2786 51.3672 24.1484C51.7839 24.0182 52.1875 23.7708 52.5781 23.4062C52.9167 23.0938 53.2682 22.625 53.6328 22C54.0234 21.375 54.388 20.5156 54.7266 19.4219C54.8568 17.8594 54.9609 16.6354 55.0391 15.75C55.1432 14.8385 55.2344 14.1484 55.3125 13.6797C55.4167 13.1328 55.4948 12.7682 55.5469 12.5859C55.625 12.4557 55.7812 12.3385 56.0156 12.2344C56.25 12.1042 56.5104 12 56.7969 11.9219C57.0833 11.8438 57.3438 11.8047 57.5781 11.8047C57.8125 11.7786 57.9688 11.7786 58.0469 11.8047C58.099 11.8307 58.125 12.1562 58.125 12.7812C58.125 13.3802 58.099 14.1484 58.0469 15.0859C58.0208 15.9974 57.9818 17 57.9297 18.0938C57.8776 19.1615 57.8255 20.1771 57.7734 21.1406C57.7474 22.1042 57.7214 22.9505 57.6953 23.6797C57.6953 24.3828 57.7214 24.8255 57.7734 25.0078ZM65.1953 25.9453C65.1693 26.1016 65.026 26.2708 64.7656 26.4531C64.5312 26.6094 64.2448 26.7526 63.9062 26.8828C63.5938 27.013 63.2943 27.0911 63.0078 27.1172C62.7214 27.1693 62.526 27.1432 62.4219 27.0391C62.3177 26.9349 62.1484 26.7396 61.9141 26.4531C61.6797 26.1667 61.5365 25.6979 61.4844 25.0469C61.4323 24.3698 61.4062 23.5234 61.4062 22.5078C61.4062 21.4661 61.3932 20.3203 61.3672 19.0703V17.5078C61.3672 17.0391 61.3542 16.4922 61.3281 15.8672C61.3281 15.2422 61.3151 14.5911 61.2891 13.9141C61.5234 13.7839 61.7578 13.6667 61.9922 13.5625C62.2526 13.4323 62.487 13.3281 62.6953 13.25C62.9297 13.1458 63.151 13.0677 63.3594 13.0156C63.9062 12.8594 64.3229 12.7682 64.6094 12.7422C64.8958 12.7161 65.0651 12.8073 65.1172 13.0156C65.1432 13.1719 65.1302 13.5495 65.0781 14.1484C65.026 14.6693 64.9609 15.4635 64.8828 16.5312C64.8047 17.5729 64.6745 19.0312 64.4922 20.9062C64.8307 20.0729 65.1042 19.3568 65.3125 18.7578C65.5469 18.1589 65.7422 17.6771 65.8984 17.3125C66.0547 16.8698 66.1979 16.5182 66.3281 16.2578C66.4583 15.9193 66.6276 15.5417 66.8359 15.125C67.0443 14.7083 67.2526 14.3177 67.4609 13.9531C67.6953 13.5885 67.9036 13.263 68.0859 12.9766C68.2943 12.6901 68.4505 12.5208 68.5547 12.4688C68.6328 12.4167 68.8672 12.4167 69.2578 12.4688C69.6484 12.5208 70.0651 12.651 70.5078 12.8594C70.9505 13.0417 71.3802 13.3151 71.7969 13.6797C72.2135 14.0182 72.487 14.4349 72.6172 14.9297C72.7734 15.5026 72.8255 16.2578 72.7734 17.1953C72.7474 18.1328 72.6823 19.0964 72.5781 20.0859C72.5 21.0755 72.4349 22.013 72.3828 22.8984C72.3307 23.7839 72.3828 24.4609 72.5391 24.9297C72.5911 25.1901 72.6693 25.4245 72.7734 25.6328C72.8255 25.8411 72.8906 26.0365 72.9688 26.2188C73.0729 26.375 73.1771 26.4922 73.2812 26.5703C72.6562 26.8568 72.1484 27.0651 71.7578 27.1953C71.3672 27.3255 71.0677 27.4167 70.8594 27.4688C70.599 27.5469 70.4167 27.5729 70.3125 27.5469C70.0781 27.4688 69.8698 27.2734 69.6875 26.9609C69.5312 26.6484 69.388 26.1536 69.2578 25.4766C69.2057 25.2682 69.1797 24.9297 69.1797 24.4609C69.2057 23.9661 69.2448 23.4193 69.2969 22.8203C69.349 22.1953 69.401 21.5573 69.4531 20.9062C69.5312 20.2292 69.5833 19.6042 69.6094 19.0312C69.6615 18.4323 69.7005 17.9245 69.7266 17.5078C69.7526 17.0651 69.7526 16.7656 69.7266 16.6094C69.5964 16.1406 69.4141 15.8151 69.1797 15.6328C68.9453 15.4245 68.763 15.3984 68.6328 15.5547C68.2943 15.9453 67.9297 16.5833 67.5391 17.4688C67.1745 18.3281 66.8229 19.2786 66.4844 20.3203C66.1458 21.3359 65.8594 22.3516 65.625 23.3672C65.3906 24.3828 65.2474 25.2422 65.1953 25.9453ZM84.4141 12.4688C84.4141 12.1823 84.5833 11.974 84.9219 11.8438C85.2865 11.6875 85.6641 11.6094 86.0547 11.6094C86.4714 11.6094 86.849 11.6875 87.1875 11.8438C87.526 11.974 87.6823 12.1562 87.6562 12.3906C87.6302 12.5729 87.6042 12.9375 87.5781 13.4844C87.5521 14.0052 87.513 14.6302 87.4609 15.3594C87.4349 16.0885 87.3958 16.8698 87.3438 17.7031C87.2917 18.5365 87.2396 19.3568 87.1875 20.1641C87.1615 20.9453 87.1354 21.6745 87.1094 22.3516C87.1094 23.0286 87.1094 23.5495 87.1094 23.9141C87.1094 24.3828 87.1354 24.8125 87.1875 25.2031C87.2396 25.5417 87.3047 25.8802 87.3828 26.2188C87.4609 26.5312 87.5781 26.7526 87.7344 26.8828C87.526 26.9609 87.3047 27.013 87.0703 27.0391C86.862 27.0651 86.6667 27.0911 86.4844 27.1172C86.276 27.1432 86.0677 27.1562 85.8594 27.1562C85.4167 27.1562 85.0391 27.0651 84.7266 26.8828C84.4401 26.7005 84.2969 26.3229 84.2969 25.75C84.2969 25.4635 84.3099 25.0469 84.3359 24.5C84.388 23.9531 84.4401 23.3672 84.4922 22.7422C84.3099 23.2891 84.0885 23.849 83.8281 24.4219C83.5677 24.9948 83.2422 25.5026 82.8516 25.9453C82.487 26.388 82.0703 26.7526 81.6016 27.0391C81.1328 27.3255 80.599 27.4688 80 27.4688C79.3229 27.4688 78.6979 27.3255 78.125 27.0391C77.5781 26.7526 77.0964 26.349 76.6797 25.8281C76.263 25.2812 75.9505 24.6172 75.7422 23.8359C75.5339 23.0547 75.4557 22.1562 75.5078 21.1406C75.5078 20.3594 75.5208 19.526 75.5469 18.6406C75.5729 17.8854 75.612 17.013 75.6641 16.0234C75.7161 15.0339 75.8073 14.0052 75.9375 12.9375C75.9635 12.8333 76.1458 12.7031 76.4844 12.5469C76.8229 12.3906 77.2005 12.2604 77.6172 12.1562C78.0339 12.0521 78.4375 12.013 78.8281 12.0391C79.2188 12.0651 79.5052 12.2214 79.6875 12.5078C79.5573 12.9766 79.4271 13.5365 79.2969 14.1875C79.1667 14.8125 79.0495 15.4635 78.9453 16.1406C78.8411 16.8177 78.763 17.4818 78.7109 18.1328C78.6589 18.7839 78.6328 19.3828 78.6328 19.9297C78.6328 20.4245 78.6589 20.9714 78.7109 21.5703C78.763 22.1432 78.8542 22.6901 78.9844 23.2109C79.1406 23.7057 79.349 24.1224 79.6094 24.4609C79.8958 24.7995 80.2604 24.9688 80.7031 24.9688C81.1979 24.9688 81.6276 24.7604 81.9922 24.3438C82.3828 23.901 82.7083 23.3411 82.9688 22.6641C83.2292 21.987 83.4505 21.2188 83.6328 20.3594C83.8151 19.474 83.9583 18.6016 84.0625 17.7422C84.1927 16.8828 84.2708 16.0625 84.2969 15.2812C84.349 14.474 84.388 13.7969 84.4141 13.25V12.4688ZM95.625 27.4297C93.8021 27.4297 92.3958 26.8177 91.4062 25.5938C90.4167 24.3698 89.9219 22.7682 89.9219 20.7891C89.9219 19.4089 90.1172 18.1198 90.5078 16.9219C90.9245 15.6979 91.4714 14.6432 92.1484 13.7578C92.8255 12.8724 93.6068 12.1823 94.4922 11.6875C95.4036 11.1667 96.3542 10.9062 97.3438 10.9062C98.3073 10.9062 99.1276 11.2578 99.8047 11.9609C100.482 12.638 100.82 13.6146 100.82 14.8906C100.82 15.724 100.638 16.5573 100.273 17.3906C99.9089 18.1979 99.4271 18.9271 98.8281 19.5781C98.2552 20.2031 97.6172 20.7109 96.9141 21.1016C96.2109 21.4922 95.5339 21.6875 94.8828 21.6875C94.4661 21.6875 94.1146 21.6354 93.8281 21.5312C93.5417 21.4271 93.2812 21.2708 93.0469 21.0625C93.125 22.5469 93.4505 23.5885 94.0234 24.1875C94.5964 24.7604 95.3385 25.0469 96.25 25.0469C96.875 25.0469 97.4219 24.9167 97.8906 24.6562C98.3854 24.3958 98.8021 24.0964 99.1406 23.7578C99.4792 23.4193 99.7526 23.0807 99.9609 22.7422C100.169 22.3776 100.312 22.1042 100.391 21.9219C100.469 21.7656 100.599 21.6875 100.781 21.6875C100.99 21.6875 101.094 21.8438 101.094 22.1562C101.094 22.4427 100.99 22.8854 100.781 23.4844C100.599 24.0573 100.286 24.6432 99.8438 25.2422C99.401 25.8151 98.8281 26.3229 98.125 26.7656C97.4479 27.2083 96.6146 27.4297 95.625 27.4297ZM97.4219 12.5859C97.2656 12.5859 96.9661 12.7552 96.5234 13.0938C96.1068 13.4062 95.651 13.875 95.1562 14.5C94.6875 15.125 94.2448 15.8802 93.8281 16.7656C93.4375 17.625 93.1901 18.6016 93.0859 19.6953C94.6484 19.3307 95.8854 18.7578 96.7969 17.9766C97.7083 17.1953 98.1641 16.0495 98.1641 14.5391C98.1641 13.7839 98.0729 13.276 97.8906 13.0156C97.7083 12.7292 97.5521 12.5859 97.4219 12.5859ZM108.438 1.6875C108.385 2.625 108.294 3.70573 108.164 4.92969C108.034 6.15365 107.891 7.46875 107.734 8.875C107.604 10.2812 107.461 11.7526 107.305 13.2891C107.174 14.8255 107.057 16.375 106.953 17.9375C106.849 19.5 106.797 20.776 106.797 21.7656C106.823 22.7292 106.888 23.5234 106.992 24.1484C107.096 24.7734 107.24 25.2682 107.422 25.6328C107.604 25.9974 107.839 26.349 108.125 26.6875C107.786 26.8958 107.474 27.0521 107.188 27.1562C106.901 27.2604 106.654 27.3385 106.445 27.3906C106.185 27.4688 105.951 27.5078 105.742 27.5078C105.352 27.5078 105.013 27.3255 104.727 26.9609C104.44 26.5703 104.206 26.0755 104.023 25.4766C103.867 24.8776 103.737 24.2135 103.633 23.4844C103.555 22.7292 103.516 21.987 103.516 21.2578C103.516 20.4766 103.542 19.5781 103.594 18.5625C103.646 17.5208 103.698 16.4271 103.75 15.2812C103.828 14.1094 103.906 12.8984 103.984 11.6484C104.062 10.3724 104.128 9.10938 104.18 7.85938C104.232 6.89583 104.284 6.02344 104.336 5.24219C104.388 4.5651 104.427 3.95312 104.453 3.40625C104.479 2.83333 104.466 2.49479 104.414 2.39062C104.57 2.18229 104.766 2.02604 105 1.92188C105.234 1.81771 105.456 1.72656 105.664 1.64844C105.924 1.57031 106.185 1.50521 106.445 1.45312H107.188C107.396 1.45312 107.617 1.47917 107.852 1.53125C108.086 1.55729 108.281 1.60938 108.438 1.6875ZM131.172 28.9141C130.911 29.2786 130.612 29.5521 130.273 29.7344C129.935 29.9427 129.609 30.0859 129.297 30.1641C128.932 30.2682 128.542 30.3073 128.125 30.2812C127.969 30.2812 127.799 30.2422 127.617 30.1641C127.461 30.112 127.292 30.0339 127.109 29.9297C126.927 29.8516 126.771 29.7214 126.641 29.5391C126.276 28.237 125.951 26.974 125.664 25.75C125.378 24.526 125.13 23.4323 124.922 22.4688C124.661 21.349 124.44 20.2943 124.258 19.3047C123.555 19.2786 122.5 19.2786 121.094 19.3047C119.714 19.3047 118.216 19.3828 116.602 19.5391C116.107 21.1016 115.716 22.4167 115.43 23.4844C115.143 24.5521 114.935 25.4375 114.805 26.1406C114.674 26.8438 114.622 27.4167 114.648 27.8594C114.674 28.3281 114.753 28.7318 114.883 29.0703C114.518 29.4349 114.154 29.6953 113.789 29.8516C113.451 30.0339 113.138 30.151 112.852 30.2031C112.513 30.2812 112.188 30.3073 111.875 30.2812C111.458 30.2292 111.12 30.151 110.859 30.0469C110.599 29.9688 110.404 29.8255 110.273 29.6172C110.169 29.4349 110.13 29.1615 110.156 28.7969C110.208 28.4323 110.312 27.9505 110.469 27.3516C110.625 26.8307 110.911 25.9062 111.328 24.5781C111.771 23.224 112.266 21.6875 112.812 19.9688C111.823 20.0469 111.055 19.9948 110.508 19.8125C109.987 19.6302 109.622 19.1354 109.414 18.3281C109.831 18.1979 110.273 18.0807 110.742 17.9766C111.237 17.8464 111.706 17.7292 112.148 17.625C112.643 17.5208 113.151 17.4297 113.672 17.3516C114.219 15.6328 114.779 13.9401 115.352 12.2734C115.924 10.6068 116.458 9.10938 116.953 7.78125L119.219 1.72656C119.271 1.57031 119.544 1.40104 120.039 1.21875C120.534 1.03646 121.081 0.893229 121.68 0.789062C122.279 0.658854 122.852 0.59375 123.398 0.59375C123.945 0.59375 124.297 0.710938 124.453 0.945312C124.531 1.49219 124.635 2.16927 124.766 2.97656C124.922 3.78385 125.065 4.5651 125.195 5.32031C125.352 6.20573 125.534 7.11719 125.742 8.05469C125.977 9.35677 126.224 10.8021 126.484 12.3906C126.771 13.9792 127.122 15.6719 127.539 17.4688C127.956 19.2656 128.451 21.1276 129.023 23.0547C129.596 24.9818 130.312 26.9349 131.172 28.9141ZM120.312 16.6875C121.146 16.6615 121.836 16.6484 122.383 16.6484C122.93 16.6484 123.398 16.6615 123.789 16.6875L123.672 16.1016C123.516 15.138 123.346 14.1094 123.164 13.0156C123.008 11.9219 122.839 10.8411 122.656 9.77344C122.5 8.70573 122.344 7.6901 122.188 6.72656C122.031 5.76302 121.901 4.91667 121.797 4.1875C121.536 4.86458 121.237 5.6849 120.898 6.64844C120.56 7.58594 120.195 8.61458 119.805 9.73438C119.414 10.8542 119.01 12.026 118.594 13.25C118.203 14.474 117.812 15.6849 117.422 16.8828C117.891 16.8307 118.359 16.7917 118.828 16.7656C119.297 16.7396 119.792 16.7135 120.312 16.6875ZM139.219 1.60938C139.974 1.66146 140.651 1.84375 141.25 2.15625C141.771 2.44271 142.24 2.89844 142.656 3.52344C143.073 4.1224 143.294 4.98177 143.32 6.10156C142.93 6.38802 142.539 6.59635 142.148 6.72656C141.758 6.85677 141.406 6.94792 141.094 7C140.729 7.05208 140.378 7.05208 140.039 7C140.143 6.27083 140.143 5.71094 140.039 5.32031C139.961 4.92969 139.844 4.64323 139.688 4.46094C139.505 4.2526 139.271 4.13542 138.984 4.10938C138.125 4.10938 137.487 4.76042 137.07 6.0625C136.68 7.33854 136.445 9.09635 136.367 11.3359C136.732 11.2839 137.057 11.2188 137.344 11.1406C137.63 11.0625 137.956 11.0104 138.32 10.9844C138.659 10.9583 138.984 10.9453 139.297 10.9453C139.583 10.9453 139.87 10.9714 140.156 11.0234C140.469 11.0755 140.755 11.1667 141.016 11.2969C141.068 11.7396 141.068 12.1432 141.016 12.5078C140.964 12.8724 140.885 13.1979 140.781 13.4844C140.677 13.7969 140.534 14.0964 140.352 14.3828C140.039 14.2266 139.648 14.1224 139.18 14.0703C138.737 14.0182 138.307 13.9922 137.891 13.9922C137.396 13.9922 136.888 14.0182 136.367 14.0703C136.393 15.2682 136.419 16.401 136.445 17.4688C136.471 18.5104 136.497 19.5391 136.523 20.5547C136.576 21.5443 136.628 22.5469 136.68 23.5625C136.732 24.5521 136.784 25.5677 136.836 26.6094C136.549 26.974 136.237 27.1953 135.898 27.2734C135.586 27.3776 135.286 27.4167 135 27.3906C134.661 27.3646 134.323 27.2734 133.984 27.1172C133.776 25.3984 133.607 23.7839 133.477 22.2734C133.372 20.737 133.281 19.3958 133.203 18.25C133.099 16.9219 133.021 15.6979 132.969 14.5781C132.526 14.6302 132.148 14.6693 131.836 14.6953C131.549 14.6953 131.328 14.6823 131.172 14.6562C131.068 14.6562 131.016 14.5781 131.016 14.4219L130.977 12.5859C130.977 12.4818 131.029 12.4297 131.133 12.4297C131.315 12.3776 131.549 12.3255 131.836 12.2734C132.148 12.1953 132.513 12.1042 132.93 12C133.034 8.69271 133.594 6.14062 134.609 4.34375C135.625 2.52083 137.161 1.60938 139.219 1.60938ZM152.539 20.2812C152.487 21.2969 152.305 22.2344 151.992 23.0938C151.706 23.9531 151.302 24.7083 150.781 25.3594C150.26 25.9844 149.635 26.4792 148.906 26.8438C148.203 27.2083 147.422 27.4036 146.562 27.4297C145.807 27.4557 145.091 27.2734 144.414 26.8828C143.763 26.4922 143.19 25.9453 142.695 25.2422C142.201 24.5391 141.823 23.7057 141.562 22.7422C141.328 21.7526 141.263 20.6849 141.367 19.5391C141.445 18.2109 141.693 17.0781 142.109 16.1406C142.526 15.1771 142.969 14.3828 143.438 13.7578C143.906 13.1328 144.336 12.6771 144.727 12.3906C145.143 12.0781 145.404 11.8958 145.508 11.8438C145.69 11.7656 145.859 11.7526 146.016 11.8047C146.172 11.8307 146.341 11.8698 146.523 11.9219C146.576 11.9479 146.628 12.013 146.68 12.1172C146.784 12.2995 146.849 12.638 146.875 13.1328C147.005 12.8464 147.174 12.612 147.383 12.4297C147.591 12.2474 147.799 12.1172 148.008 12.0391C148.268 11.9349 148.529 11.8698 148.789 11.8438C148.971 11.8177 149.284 11.9609 149.727 12.2734C150.195 12.5859 150.638 13.0807 151.055 13.7578C151.497 14.4349 151.875 15.3203 152.188 16.4141C152.5 17.4818 152.617 18.7708 152.539 20.2812ZM149.883 19.8125C149.909 19.1875 149.883 18.5625 149.805 17.9375C149.753 17.2865 149.648 16.7005 149.492 16.1797C149.362 15.6328 149.193 15.2031 148.984 14.8906C148.776 14.5521 148.568 14.3828 148.359 14.3828C148.125 14.4349 147.865 14.5521 147.578 14.7344C147.344 14.8906 147.083 15.138 146.797 15.4766C146.51 15.8151 146.237 16.2969 145.977 16.9219C145.951 16.8438 145.924 16.7005 145.898 16.4922C145.872 16.3099 145.846 16.0755 145.82 15.7891C145.82 15.4766 145.846 15.0599 145.898 14.5391C145.534 14.9818 145.247 15.5026 145.039 16.1016C144.857 16.7005 144.714 17.2734 144.609 17.8203C144.505 18.4714 144.427 19.1224 144.375 19.7734C144.349 20.4766 144.375 21.1667 144.453 21.8438C144.557 22.5208 144.714 23.1198 144.922 23.6406C145.156 24.1615 145.43 24.5781 145.742 24.8906C146.055 25.2031 146.432 25.3464 146.875 25.3203C147.318 25.2943 147.708 25.112 148.047 24.7734C148.385 24.4349 148.685 24.0052 148.945 23.4844C149.206 22.9635 149.414 22.3776 149.57 21.7266C149.727 21.0755 149.831 20.4375 149.883 19.8125ZM158.711 25.9453C158.685 26.1016 158.542 26.2708 158.281 26.4531C158.047 26.6094 157.76 26.7526 157.422 26.8828C157.109 27.013 156.81 27.0911 156.523 27.1172C156.237 27.1693 156.042 27.1432 155.938 27.0391C155.833 26.9349 155.664 26.7396 155.43 26.4531C155.195 26.1667 155.052 25.6979 155 25.0469C154.948 24.3698 154.922 23.5234 154.922 22.5078C154.922 21.4661 154.909 20.3203 154.883 19.0703V17.5078C154.883 17.0391 154.87 16.4922 154.844 15.8672C154.844 15.2422 154.831 14.5911 154.805 13.9141C155.039 13.7839 155.273 13.6667 155.508 13.5625C155.768 13.4323 156.003 13.3281 156.211 13.25C156.445 13.1458 156.667 13.0677 156.875 13.0156C157.422 12.8594 157.839 12.7682 158.125 12.7422C158.411 12.7161 158.581 12.8073 158.633 13.0156C158.659 13.1719 158.646 13.5495 158.594 14.1484C158.542 14.6693 158.477 15.4635 158.398 16.5312C158.32 17.5729 158.19 19.0312 158.008 20.9062C158.346 20.0729 158.62 19.3568 158.828 18.7578C159.062 18.1589 159.258 17.6771 159.414 17.3125C159.57 16.8698 159.714 16.5182 159.844 16.2578C159.974 15.9193 160.143 15.5417 160.352 15.125C160.56 14.7083 160.768 14.3177 160.977 13.9531C161.211 13.5885 161.419 13.263 161.602 12.9766C161.81 12.6901 161.966 12.5208 162.07 12.4688C162.148 12.4167 162.383 12.4167 162.773 12.4688C163.164 12.5208 163.581 12.651 164.023 12.8594C164.466 13.0417 164.896 13.3151 165.312 13.6797C165.729 14.0182 166.003 14.4349 166.133 14.9297C166.289 15.5026 166.341 16.2578 166.289 17.1953C166.263 18.1328 166.198 19.0964 166.094 20.0859C166.016 21.0755 165.951 22.013 165.898 22.8984C165.846 23.7839 165.898 24.4609 166.055 24.9297C166.107 25.1901 166.185 25.4245 166.289 25.6328C166.341 25.8411 166.406 26.0365 166.484 26.2188C166.589 26.375 166.693 26.4922 166.797 26.5703C166.172 26.8568 165.664 27.0651 165.273 27.1953C164.883 27.3255 164.583 27.4167 164.375 27.4688C164.115 27.5469 163.932 27.5729 163.828 27.5469C163.594 27.4688 163.385 27.2734 163.203 26.9609C163.047 26.6484 162.904 26.1536 162.773 25.4766C162.721 25.2682 162.695 24.9297 162.695 24.4609C162.721 23.9661 162.76 23.4193 162.812 22.8203C162.865 22.1953 162.917 21.5573 162.969 20.9062C163.047 20.2292 163.099 19.6042 163.125 19.0312C163.177 18.4323 163.216 17.9245 163.242 17.5078C163.268 17.0651 163.268 16.7656 163.242 16.6094C163.112 16.1406 162.93 15.8151 162.695 15.6328C162.461 15.4245 162.279 15.3984 162.148 15.5547C161.81 15.9453 161.445 16.5833 161.055 17.4688C160.69 18.3281 160.339 19.2786 160 20.3203C159.661 21.3359 159.375 22.3516 159.141 23.3672C158.906 24.3828 158.763 25.2422 158.711 25.9453ZM175.234 19.5781C175.807 19.7865 176.354 19.9818 176.875 20.1641C177.396 20.3464 177.852 20.5677 178.242 20.8281C178.633 21.0885 178.945 21.401 179.18 21.7656C179.414 22.1042 179.531 22.5339 179.531 23.0547C179.531 23.6797 179.388 24.2656 179.102 24.8125C178.841 25.3594 178.451 25.8411 177.93 26.2578C177.409 26.6745 176.771 27 176.016 27.2344C175.286 27.4948 174.466 27.625 173.555 27.625C172.539 27.625 171.719 27.5208 171.094 27.3125C170.469 27.1302 169.987 26.9089 169.648 26.6484C169.31 26.388 169.089 26.1276 168.984 25.8672C168.88 25.6068 168.828 25.3984 168.828 25.2422C168.828 24.9297 168.893 24.5911 169.023 24.2266C169.154 23.8359 169.401 23.4193 169.766 22.9766C169.922 22.7943 170.091 22.625 170.273 22.4688C170.638 22.1562 171.003 21.9609 171.367 21.8828C171.315 22.4818 171.38 22.9766 171.562 23.3672C171.771 23.7318 172.031 24.0182 172.344 24.2266C172.682 24.4349 173.047 24.5781 173.438 24.6562C173.854 24.7344 174.245 24.7734 174.609 24.7734C174.974 24.7734 175.339 24.7214 175.703 24.6172C176.094 24.513 176.445 24.3828 176.758 24.2266C177.07 24.0443 177.318 23.849 177.5 23.6406C177.708 23.4062 177.812 23.1589 177.812 22.8984C177.812 22.612 177.695 22.3776 177.461 22.1953C177.227 22.013 176.927 21.8698 176.562 21.7656C176.224 21.6354 175.846 21.5443 175.43 21.4922C175.039 21.4141 174.661 21.3359 174.297 21.2578C173.932 21.1797 173.438 21.0755 172.812 20.9453C172.214 20.7891 171.615 20.5547 171.016 20.2422C170.443 19.9297 169.935 19.513 169.492 18.9922C169.076 18.4714 168.867 17.7812 168.867 16.9219C168.867 15.9323 169.115 15.0729 169.609 14.3438C170.13 13.5885 170.755 12.9635 171.484 12.4688C172.24 11.9479 173.034 11.5573 173.867 11.2969C174.701 11.0365 175.443 10.9062 176.094 10.9062C176.432 10.9062 176.797 10.9583 177.188 11.0625C177.578 11.1406 177.943 11.2969 178.281 11.5312C178.62 11.7396 178.893 12.026 179.102 12.3906C179.336 12.7552 179.453 13.224 179.453 13.7969C179.453 14.3698 179.401 14.8385 179.297 15.2031C179.219 15.5417 179.089 15.8151 178.906 16.0234C178.75 16.2057 178.555 16.3229 178.32 16.375C178.086 16.4271 177.812 16.4531 177.5 16.4531C177.292 16.4531 177.096 16.4271 176.914 16.375C176.758 16.3229 176.589 16.2708 176.406 16.2188C176.224 16.1667 176.055 16.0755 175.898 15.9453C176.159 15.6328 176.354 15.3333 176.484 15.0469C176.641 14.7604 176.719 14.4089 176.719 13.9922C176.719 13.6276 176.615 13.3021 176.406 13.0156C176.224 12.7292 175.911 12.5859 175.469 12.5859C175 12.5859 174.544 12.6771 174.102 12.8594C173.685 13.0417 173.307 13.2891 172.969 13.6016C172.656 13.9141 172.396 14.2786 172.188 14.6953C172.005 15.0859 171.914 15.5156 171.914 15.9844C171.914 16.6875 172.174 17.3516 172.695 17.9766C173.242 18.6016 174.089 19.1354 175.234 19.5781ZM192.578 20.2812C192.526 21.2969 192.344 22.2344 192.031 23.0938C191.745 23.9531 191.341 24.7083 190.82 25.3594C190.299 25.9844 189.674 26.4792 188.945 26.8438C188.242 27.2083 187.461 27.4036 186.602 27.4297C185.846 27.4557 185.13 27.2734 184.453 26.8828C183.802 26.4922 183.229 25.9453 182.734 25.2422C182.24 24.5391 181.862 23.7057 181.602 22.7422C181.367 21.7526 181.302 20.6849 181.406 19.5391C181.484 18.2109 181.732 17.0781 182.148 16.1406C182.565 15.1771 183.008 14.3828 183.477 13.7578C183.945 13.1328 184.375 12.6771 184.766 12.3906C185.182 12.0781 185.443 11.8958 185.547 11.8438C185.729 11.7656 185.898 11.7526 186.055 11.8047C186.211 11.8307 186.38 11.8698 186.562 11.9219C186.615 11.9479 186.667 12.013 186.719 12.1172C186.823 12.2995 186.888 12.638 186.914 13.1328C187.044 12.8464 187.214 12.612 187.422 12.4297C187.63 12.2474 187.839 12.1172 188.047 12.0391C188.307 11.9349 188.568 11.8698 188.828 11.8438C189.01 11.8177 189.323 11.9609 189.766 12.2734C190.234 12.5859 190.677 13.0807 191.094 13.7578C191.536 14.4349 191.914 15.3203 192.227 16.4141C192.539 17.4818 192.656 18.7708 192.578 20.2812ZM189.922 19.8125C189.948 19.1875 189.922 18.5625 189.844 17.9375C189.792 17.2865 189.688 16.7005 189.531 16.1797C189.401 15.6328 189.232 15.2031 189.023 14.8906C188.815 14.5521 188.607 14.3828 188.398 14.3828C188.164 14.4349 187.904 14.5521 187.617 14.7344C187.383 14.8906 187.122 15.138 186.836 15.4766C186.549 15.8151 186.276 16.2969 186.016 16.9219C185.99 16.8438 185.964 16.7005 185.938 16.4922C185.911 16.3099 185.885 16.0755 185.859 15.7891C185.859 15.4766 185.885 15.0599 185.938 14.5391C185.573 14.9818 185.286 15.5026 185.078 16.1016C184.896 16.7005 184.753 17.2734 184.648 17.8203C184.544 18.4714 184.466 19.1224 184.414 19.7734C184.388 20.4766 184.414 21.1667 184.492 21.8438C184.596 22.5208 184.753 23.1198 184.961 23.6406C185.195 24.1615 185.469 24.5781 185.781 24.8906C186.094 25.2031 186.471 25.3464 186.914 25.3203C187.357 25.2943 187.747 25.112 188.086 24.7734C188.424 24.4349 188.724 24.0052 188.984 23.4844C189.245 22.9635 189.453 22.3776 189.609 21.7266C189.766 21.0755 189.87 20.4375 189.922 19.8125Z" fill="white"/>
</svg>
