<svg width="68" height="12" viewBox="0 0 68 12" fill="none" xmlns="http://www.w3.org/2000/svg">
<path d="M4.004 11C3.276 11 2.69267 10.8227 2.254 10.468C1.81533 10.1133 1.596 9.48333 1.596 8.578V5.554H0.406V4.056H1.596L1.806 2.194H3.388V4.056H5.264V5.554H3.388V8.592C3.388 8.928 3.458 9.16133 3.598 9.292C3.74733 9.41333 3.99933 9.474 4.354 9.474H5.222V11H4.004ZM9.95684 11.168C9.28484 11.168 8.67818 11.014 8.13684 10.706C7.60484 10.398 7.18018 9.97333 6.86284 9.432C6.55484 8.88133 6.40084 8.24667 6.40084 7.528C6.40084 6.80933 6.55951 6.17933 6.87684 5.638C7.19418 5.08733 7.61884 4.658 8.15084 4.35C8.69218 4.042 9.29884 3.888 9.97084 3.888C10.6335 3.888 11.2308 4.042 11.7628 4.35C12.3042 4.658 12.7288 5.08733 13.0368 5.638C13.3542 6.17933 13.5128 6.80933 13.5128 7.528C13.5128 8.24667 13.3542 8.88133 13.0368 9.432C12.7288 9.97333 12.3042 10.398 11.7628 10.706C11.2215 11.014 10.6195 11.168 9.95684 11.168ZM9.95684 9.614C10.4235 9.614 10.8295 9.44133 11.1748 9.096C11.5202 8.74133 11.6928 8.21867 11.6928 7.528C11.6928 6.83733 11.5202 6.31933 11.1748 5.974C10.8295 5.61933 10.4282 5.442 9.97084 5.442C9.49484 5.442 9.08418 5.61933 8.73884 5.974C8.40284 6.31933 8.23484 6.83733 8.23484 7.528C8.23484 8.21867 8.40284 8.74133 8.73884 9.096C9.08418 9.44133 9.49018 9.614 9.95684 9.614ZM18.773 11V5.554H17.821V4.056H18.773V3.244C18.773 2.404 18.983 1.80667 19.403 1.452C19.8323 1.09733 20.411 0.92 21.139 0.92H21.909V2.446H21.419C21.111 2.446 20.8917 2.50667 20.761 2.628C20.6303 2.74933 20.565 2.95467 20.565 3.244V4.056H25.045V11H23.253V5.554H20.565V11H18.773ZM24.163 3.062C23.8363 3.062 23.5657 2.964 23.351 2.768C23.1457 2.572 23.043 2.32467 23.043 2.026C23.043 1.72733 23.1457 1.48467 23.351 1.298C23.5657 1.102 23.8363 1.004 24.163 1.004C24.4897 1.004 24.7557 1.102 24.961 1.298C25.1757 1.48467 25.283 1.72733 25.283 2.026C25.283 2.32467 25.1757 2.572 24.961 2.768C24.7557 2.964 24.4897 3.062 24.163 3.062ZM26.9413 11V0.92H28.7333V11H26.9413ZM33.6583 11C32.9303 11 32.347 10.8227 31.9083 10.468C31.4696 10.1133 31.2503 9.48333 31.2503 8.578V5.554H30.0603V4.056H31.2503L31.4603 2.194H33.0423V4.056H34.9183V5.554H33.0423V8.592C33.0423 8.928 33.1123 9.16133 33.2523 9.292C33.4016 9.41333 33.6536 9.474 34.0083 9.474H34.8763V11H33.6583ZM39.6531 11.168C38.9531 11.168 38.3325 11.0187 37.7911 10.72C37.2498 10.4213 36.8251 10.0013 36.5171 9.46C36.2091 8.91867 36.0551 8.29333 36.0551 7.584C36.0551 6.86533 36.2045 6.226 36.5031 5.666C36.8111 5.106 37.2311 4.672 37.7631 4.364C38.3045 4.04667 38.9391 3.888 39.6671 3.888C40.3485 3.888 40.9505 4.03733 41.4731 4.336C41.9958 4.63467 42.4018 5.04533 42.6911 5.568C42.9898 6.08133 43.1391 6.65533 43.1391 7.29C43.1391 7.39267 43.1345 7.5 43.1251 7.612C43.1251 7.724 43.1205 7.84067 43.1111 7.962H37.8331C37.8705 8.50333 38.0571 8.928 38.3931 9.236C38.7385 9.544 39.1538 9.698 39.6391 9.698C40.0031 9.698 40.3065 9.61867 40.5491 9.46C40.8011 9.292 40.9878 9.07733 41.1091 8.816H42.9291C42.7985 9.25467 42.5791 9.656 42.2711 10.02C41.9725 10.3747 41.5991 10.6547 41.1511 10.86C40.7125 11.0653 40.2131 11.168 39.6531 11.168ZM39.6671 5.344C39.2285 5.344 38.8411 5.47 38.5051 5.722C38.1691 5.96467 37.9545 6.338 37.8611 6.842H41.3191C41.2911 6.38467 41.1231 6.02067 40.8151 5.75C40.5071 5.47933 40.1245 5.344 39.6671 5.344ZM44.6463 11V4.056H46.2423L46.4103 5.358C46.6623 4.91 47.003 4.55533 47.4323 4.294C47.871 4.02333 48.3843 3.888 48.9723 3.888V5.778H48.4683C48.0763 5.778 47.7263 5.83867 47.4183 5.96C47.1103 6.08133 46.8677 6.29133 46.6903 6.59C46.5223 6.88867 46.4383 7.304 46.4383 7.836V11H44.6463ZM64.877 8.06C64.9703 7.81733 65.073 7.59333 65.185 7.388C65.297 7.17333 65.423 6.97267 65.563 6.786H58.059V5.638H65.563C65.4323 5.45133 65.311 5.25533 65.199 5.05C65.087 4.83533 64.9843 4.60667 64.891 4.364H65.955C66.5337 5.04533 67.1683 5.56333 67.859 5.918V6.52C67.1683 6.856 66.5337 7.36933 65.955 8.06H64.877Z" fill="white"/>
</svg>
